<svg width="65" height="66" viewBox="0 0 65 66" fill="none" xmlns="http://www.w3.org/2000/svg">
<g clip-path="url(#clip0_1390_10057)">
<g opacity="0.2">
<path d="M32.2496 65.0181C50.0494 65.0181 64.499 50.4172 64.499 32.5188C64.499 14.6201 50.0494 0.0195312 32.2496 0.0195312C14.4496 0.0195312 0 14.6201 0 32.5188C0 50.4172 14.4496 65.0181 32.2496 65.0181ZM6.93519 44.9389C6.53302 40.903 6.50944 36.7387 6.50944 32.5188C6.50944 28.2988 6.53302 24.1346 6.93519 20.0986C7.15387 17.9007 8.23986 17.3964 10.2629 17.182C17.2571 16.4406 25.0018 16.2689 32.2496 16.2913C39.4974 16.2689 47.2421 16.4406 54.2362 17.182C56.2593 17.3964 57.3453 17.9007 57.564 20.0986C57.966 24.1346 57.9897 28.2988 57.9897 32.5188C57.9897 36.7387 57.966 40.903 57.564 44.9389C57.3453 47.1369 56.2593 47.6409 54.2362 47.8554C47.2421 48.5968 39.4974 48.7687 32.2496 48.7463C25.0018 48.7687 17.2571 48.5968 10.2629 47.8554C8.23986 47.6409 7.15387 47.1369 6.93519 44.9389Z" fill="#FAFAFA"/>
<path d="M32.2476 45.6057C39.4679 45.6057 45.2865 39.7266 45.2865 32.5198C45.2865 25.3128 39.4679 19.4336 32.2476 19.4336C25.0274 19.4336 19.209 25.3128 19.209 32.5198C19.209 39.7266 25.0274 45.6057 32.2476 45.6057Z" fill="#FAFAFA"/>
</g>
</g>
<defs>
<clipPath id="clip0_1390_10057">
<rect width="65" height="66" fill="white"/>
</clipPath>
</defs>
</svg>
