<svg width="85" height="71" viewBox="0 0 85 71" fill="none" xmlns="http://www.w3.org/2000/svg">
<g clip-path="url(#clip0_1390_10040)">
<g opacity="0.2">
<path d="M24.6074 58.2292C23.397 58.2048 22.3319 58.3512 21.2667 58.5951C21.073 59.3026 21.0972 60.3272 21.2667 61.0591C22.5497 60.7664 23.276 60.742 24.099 60.742C25.6968 60.742 26.4715 61.4006 26.4715 62.718V62.84C25.9873 62.7912 25.4305 62.7424 25.019 62.7424C22.3803 62.7424 20.1289 63.6938 20.1289 66.2554C20.1289 69.1341 22.1624 70.1099 25.1158 70.1099C26.5199 70.1099 28.0208 69.8659 29.4248 69.4268V62.9376C29.4248 59.8393 27.7787 58.3024 24.6074 58.2292ZM26.4715 67.5483C26.302 67.5971 25.5273 67.6703 25.1642 67.6703C23.7359 67.6703 22.9855 67.2556 22.9855 66.231C22.9855 65.2308 23.7601 64.816 25.1642 64.816C25.6484 64.816 26.181 64.8648 26.4715 64.8892V67.5483Z" fill="#FAFAFA"/>
<path d="M18.9193 58.377C17.4426 58.377 16.6195 58.9625 15.8206 59.9871C15.748 59.4504 15.6512 59.0357 15.4817 58.499C15.1912 58.4014 14.6586 58.377 14.2229 58.377C13.8114 58.377 13.2546 58.4258 12.9883 58.499V69.843C13.3514 69.9406 13.9808 69.9649 14.5376 69.9649C15.0702 69.9649 15.748 69.9162 16.0869 69.843V64.3052C16.0869 62.1095 17.2247 60.9142 18.774 60.9142C19.0403 60.9142 19.5245 60.9142 19.7908 60.9629C19.9602 60.2311 19.9844 59.1821 19.8392 58.4502C19.6213 58.4502 19.1614 58.377 18.9193 58.377Z" fill="#FAFAFA"/>
<path d="M6.03905 58.2794C5.14335 58.2794 4.27185 58.4746 3.73927 58.7673V53.2051C2.86778 53.5223 1.94787 53.9858 1.1732 54.6201C0.785873 54.9372 0.640625 55.2788 0.640625 55.7423V69.477C1.4637 69.8186 3.13407 70.1357 4.7076 70.1357C8.72616 70.1357 11.0501 67.6474 11.0501 64.0612C11.0744 60.4994 9.42819 58.2794 6.03905 58.2794ZM4.90126 67.5742C4.58656 67.5742 4.07819 67.5742 3.73927 67.4522V61.2069C4.15081 60.9873 4.75602 60.8654 5.53068 60.8654C7.08 60.8654 7.90308 61.9388 7.90308 63.9636C7.87887 66.1104 6.91054 67.5742 4.90126 67.5742Z" fill="#FAFAFA"/>
<path d="M38.4073 55.7423V58.4746C37.8506 58.3282 37.2938 58.3038 36.7854 58.3038C33.372 58.3038 31.0723 60.597 31.0723 64.2808C31.0723 68.0377 33.3236 70.1113 36.858 70.1113C38.48 70.1113 40.0535 69.8918 41.4818 69.4038V53.2051C40.6103 53.5223 39.6904 53.9858 38.9157 54.6201C38.5284 54.9372 38.4073 55.2544 38.4073 55.7423ZM38.4073 67.4034C37.8748 67.5498 37.5116 67.5742 37.1001 67.5742C35.0666 67.5742 34.2677 66.2324 34.2677 64.2564C34.2677 62.0852 35.0666 60.7434 37.0759 60.7434C37.6811 60.7434 38.0442 60.8166 38.4073 60.9142V67.4034Z" fill="#FAFAFA"/>
<path d="M60.46 63.1331L59.2254 62.5964C58.4991 62.3036 58.0876 62.0353 58.0876 61.5717C58.0876 60.8399 58.7412 60.6935 59.5885 60.6935C60.4358 60.6935 61.3073 60.7911 62.4935 61.1814C62.6387 60.352 62.6387 59.5713 62.4935 58.8638C61.743 58.4735 60.3632 58.2539 59.1285 58.2539C56.7319 58.2539 54.9163 59.5469 54.9163 61.4986C54.9163 63.255 55.6668 64.1333 57.7487 64.9871L58.717 65.3775C59.6369 65.7434 59.9032 65.9874 59.9032 66.5728C59.9032 67.4755 59.0075 67.6219 58.2571 67.6219C57.0224 67.6219 56.0783 67.3779 54.8679 66.9388C54.6742 67.6707 54.6742 68.6221 54.8679 69.3783C55.8846 69.9394 57.2887 70.1102 58.7412 70.1102C61.1136 70.1102 63.0019 68.866 63.0019 66.5972C63.0019 64.7432 62.2272 63.8649 60.46 63.1331Z" fill="#FAFAFA"/>
<path d="M70.0447 67.5486C68.4954 67.5486 67.4787 66.3289 67.4787 64.1576C67.4787 62.1084 68.3018 60.7667 70.069 60.7667C70.8194 60.7667 71.3278 60.8886 72.0298 61.157C72.2235 60.4495 72.6108 59.6445 73.1192 58.9858C72.1509 58.4735 71.2067 58.2051 69.6574 58.2051C66.2441 58.2051 64.2832 60.6447 64.2832 64.1332C64.2832 67.7682 66.2925 70.0614 69.7785 70.0614C71.0373 70.0614 72.2235 69.8418 73.1676 69.3051C72.7561 68.744 72.2719 68.0122 72.0056 67.1339C71.1341 67.5242 70.771 67.5486 70.0447 67.5486Z" fill="#FAFAFA"/>
<path d="M78.6641 58.2305C75.2023 58.2305 73.2656 60.6213 73.2656 64.1831C73.2656 67.818 75.2991 70.0868 78.6641 70.0868C82.15 70.0868 84.0867 67.7692 84.0867 64.1831C84.0867 60.5969 82.15 58.2305 78.6641 58.2305ZM78.6641 67.5984C76.9453 67.5984 76.4369 66.1835 76.4369 64.1831C76.4369 62.2314 76.9695 60.7189 78.6641 60.7189C80.4313 60.7189 80.9154 62.1826 80.9154 64.1831C80.9154 66.3055 80.3586 67.5984 78.6641 67.5984Z" fill="#FAFAFA"/>
<path d="M48.5969 58.2305C45.2561 58.2305 43.2227 60.4749 43.2227 64.2319C43.2227 67.9888 45.3772 70.0868 49.081 70.0868C50.3399 70.0868 51.7197 69.8672 52.5912 69.4281C52.7607 68.6963 52.7607 67.7448 52.5912 67.013C51.4534 67.3301 50.4851 67.5497 49.4199 67.5497C47.7012 67.5497 46.515 66.891 46.2729 65.0613H53.2933C53.3901 64.793 53.4143 63.8659 53.4143 63.4756C53.3901 60.1334 51.5018 58.2305 48.5969 58.2305ZM46.2729 62.8169C46.4908 61.4507 47.3138 60.6213 48.5485 60.6213C49.9525 60.6213 50.4851 61.5727 50.5335 62.8169H46.2729Z" fill="#FAFAFA"/>
<path d="M41.0693 9.90228C38.2611 9.90228 35.2109 10.1706 32.1849 10.6829C35.2351 6.73084 40.101 4.1693 45.5236 4.1693C49.5179 4.1693 53.5123 5.68183 56.1994 7.95063C56.6836 8.36535 57.0709 8.38975 57.434 8.02381C57.7971 7.65788 57.7729 7.26755 57.3614 6.80403C53.8512 2.68117 48.6949 -0.0755418 42.6186 0.0220408C34.6541 0.168415 27.9 5.24271 25.3097 12.2686C22.9616 13.0249 20.7828 13.9031 18.8946 14.9766C18.362 15.2693 18.1925 15.6352 18.362 16.0744C18.5557 16.4891 18.9188 16.6355 19.4514 16.4891C21.0975 16.0012 22.7679 15.5864 24.5351 15.2205C24.3414 16.1475 24.2446 17.099 24.2446 18.0992C24.0993 24.564 27.5369 30.7361 32.8385 34.1027C33.3711 34.4443 33.8068 34.4443 34.0973 34.0295C34.3878 33.6148 34.3636 33.2489 33.9037 32.8586C30.5387 29.8335 28.6747 25.2959 28.6747 20.8315C28.6747 18.5627 29.1346 16.3915 29.9819 14.4155C31.7491 14.2691 33.6374 14.1471 35.7435 14.1471C49.3485 14.1471 60.7989 18.6603 60.7989 24.5884C60.7989 27.5891 57.0225 30.5898 52.544 32.5902C51.4546 33.0781 51.3578 33.4197 51.503 33.8832C51.6483 34.3223 52.1324 34.4687 52.6892 34.2979C60.5327 31.712 66.4637 27.4427 66.4637 22.2952C66.4637 15.3181 55.2553 9.90228 41.0693 9.90228Z" fill="#FAFAFA"/>
<path d="M47.5561 45.5207V30.5173C47.5561 29.9319 46.9993 29.7367 46.5636 30.005L42.7871 32.2006V46.2525H46.8541C47.2172 46.2281 47.5561 45.911 47.5561 45.5207Z" fill="#FAFAFA"/>
<path d="M38.1641 35.3966V45.7647C38.1641 46.0331 38.3577 46.2282 38.624 46.2282H41.4806V32.9082L38.624 34.5671C38.3335 34.7623 38.1641 35.0307 38.1641 35.3966Z" fill="#FAFAFA"/>
</g>
</g>
<defs>
<clipPath id="clip0_1390_10040">
<rect width="85" height="71" fill="white"/>
</clipPath>
</defs>
</svg>
