<svg width="64" height="82" viewBox="0 0 64 82" fill="none" xmlns="http://www.w3.org/2000/svg">
<g opacity="0.2" clip-path="url(#clip0_1391_10080)">
<path d="M9.33437 69.3516V63.4347L7.30355 67.7299L5.34908 63.4347V69.3516H3.73926V60.2816H5.51268L7.30355 64.4125L9.16968 60.2816H10.9551V69.3516" fill="#FAFAFA"/>
<path d="M12.4189 69.3512H14.0429V60.2812H12.4189V69.3512Z" fill="#FAFAFA"/>
<path d="M18.3399 61.6575V69.3516H16.7192V61.6575H14.7734V60.2816H20.2944V61.6575" fill="#FAFAFA"/>
<path d="M23.2991 69.5977C21.1865 69.5977 20.459 68.2152 20.375 66.5098H21.9205C21.9205 67.3299 22.3284 68.1304 23.2991 68.1304C24.1094 68.1304 24.5981 67.7291 24.5981 67.0863C24.5981 66.5098 24.1956 66.2694 22.4876 65.3036C21.2683 64.5694 20.459 63.8439 20.459 62.5475C20.459 61.1683 21.3544 60.2025 23.2216 60.2025C25.247 60.2025 25.9799 61.4935 26.0606 63.0304H24.4421C24.4421 62.3027 24.0385 61.5696 23.2216 61.5696C22.4876 61.5696 22.0841 61.9025 22.0841 62.4648C22.0841 63.1109 22.5694 63.4339 23.8651 64.0876C25.3288 64.9033 26.221 65.5418 26.221 67.009C26.221 68.7036 24.8467 69.5977 23.2991 69.5977Z" fill="#FAFAFA"/>
<path d="M30.0654 69.5078C28.6093 69.5078 26.9014 68.9422 26.9014 66.5102V60.2823H28.5265V66.5102C28.5265 67.4837 29.014 68.0558 30.0654 68.0558C30.9641 68.0558 31.4593 67.4837 31.4593 66.5102V60.2823H33.0756V66.5102C33.0756 68.8639 31.4593 69.5078 30.0654 69.5078Z" fill="#FAFAFA"/>
<path d="M36.9726 65.3827H36.3258V63.9274H36.9726C37.7862 63.9274 38.2683 63.6044 38.2683 62.7962C38.2683 61.987 37.7022 61.6575 36.9726 61.6575H35.7565V67.9778H37.0522C37.9433 67.9778 38.5137 67.5722 38.5137 66.5998C38.5137 65.7057 37.9433 65.3827 36.9726 65.3827ZM37.4579 69.3516H34.1357V60.2827H37.1394C38.8387 60.2827 39.8912 61.0897 39.8912 62.5483C39.8912 63.7588 39.0077 64.493 38.5955 64.5702C39.167 64.7377 40.2173 65.3827 40.2173 66.8402C40.2173 68.2933 39.0852 69.3516 37.4579 69.3516" fill="#FAFAFA"/>
<path d="M55.4797 69.3516V65.3827H52.1673V69.3516H50.4561V60.2816H52.1673V63.8447H55.4033V60.2816H57.1091V69.3516" fill="#FAFAFA"/>
<path d="M41.1133 69.3512H42.7384V60.2812H41.1133V69.3512Z" fill="#FAFAFA"/>
<path d="M58.6523 69.3512H60.2763V60.2812H58.6523V69.3512Z" fill="#FAFAFA"/>
<path d="M46.717 69.4258C44.6022 69.4258 43.8748 68.1304 43.793 66.3499H45.333C45.333 67.1613 45.7387 68.0542 46.717 68.0542C47.5329 68.0542 48.0226 67.6485 48.0226 67.0079C48.0226 66.4293 47.6179 66.1008 45.911 65.1339C44.6906 64.4911 43.8748 63.7569 43.8748 62.4648C43.8748 61.0878 44.7669 60.123 46.6385 60.123C48.6682 60.123 49.399 61.4119 49.4819 62.9433H47.9408C47.8524 62.1417 47.4456 61.4924 46.6385 61.4924C45.9907 61.4924 45.4999 61.8122 45.4999 62.381C45.4999 62.9433 45.9907 63.2762 47.2907 64.0092C48.749 64.8076 49.6433 65.3808 49.6433 66.9296C49.6433 68.5361 48.2614 69.4258 46.717 69.4258Z" fill="#FAFAFA"/>
<path d="M23.3699 74.0272C22.1518 74.0272 21.4085 75.4015 21.4085 77.2843C21.4085 79.1551 22.1518 80.454 23.3699 80.454C24.5979 80.454 25.338 79.1551 25.338 77.2843C25.338 75.4015 24.5979 74.0272 23.3699 74.0272ZM23.3699 82C20.846 82 19.6992 79.8133 19.6992 77.2843C19.6992 74.7543 20.846 72.5664 23.3699 72.5664C25.9048 72.5664 27.045 74.7543 27.045 77.2843C27.045 79.8133 25.9048 82 23.3699 82Z" fill="#FAFAFA"/>
<path d="M44.4557 81.7598L41.764 76.8812H42.2486C42.822 76.8812 43.8044 76.7161 43.8044 75.4029C43.8044 74.2669 42.822 74.0275 42.1686 74.0275H41.1895V81.7598H39.5537V72.6433H42.5808C44.3712 72.6433 45.5937 73.5366 45.5937 75.2455C45.5937 76.8812 44.6212 77.5219 44.0467 77.7734L46.416 81.7598" fill="#FAFAFA"/>
<path d="M49.2086 81.8398C47.0849 81.8398 46.3514 80.5464 46.2637 78.7456H47.8184C47.8184 79.5624 48.2273 80.4545 49.2086 80.4545C50.0254 80.4545 50.5242 80.0489 50.5242 79.4071C50.5242 78.8309 50.1032 78.5018 48.394 77.5221C47.1693 76.8814 46.3514 76.1532 46.3514 74.8412C46.3514 73.4603 47.2471 72.485 49.1252 72.485C51.17 72.485 51.909 73.7806 51.9824 75.3343H50.3521C50.3521 74.511 49.9464 73.8714 49.1252 73.8714C48.4729 73.8714 47.9795 74.1907 47.9795 74.7548C47.9795 75.3343 48.4729 75.6536 49.7787 76.3894C51.249 77.1996 52.1524 77.7736 52.1524 79.3273C52.1524 80.9433 50.7654 81.8398 49.2086 81.8398Z" fill="#FAFAFA"/>
<path d="M35.26 74.0272C34.0353 74.0272 33.2985 75.4015 33.2985 77.2843C33.2985 79.1551 34.0353 80.454 35.26 80.454C36.4879 80.454 37.2159 79.1551 37.2159 77.2843C37.2159 75.4015 36.4879 74.0272 35.26 74.0272ZM35.26 82C32.7328 82 31.5947 79.8133 31.5947 77.2843C31.5947 74.7543 32.7328 72.5664 35.26 72.5664C37.7937 72.5664 38.9274 74.7543 38.9274 77.2843C38.9274 79.8133 37.7937 82 35.26 82Z" fill="#FAFAFA"/>
<path d="M30.0897 74.0266V81.7578H28.455V74.0266H26.499V72.6424H32.0522V74.0266" fill="#FAFAFA"/>
<path d="M17.4987 81.7598V75.8119L15.4528 80.1405L13.4914 75.8119V81.7598H11.8545V72.6433H13.6548L15.4528 76.7959L17.3299 72.6433H19.1367V81.7598" fill="#FAFAFA"/>
<path d="M31.96 36.873L21.3086 18.475L31.96 -0.000187372L42.6889 18.475" fill="#FAFAFA"/>
<path d="M42.6893 55.2676L31.959 36.8737H53.3435L64.0005 55.2676" fill="#FAFAFA"/>
<path d="M21.307 55.2676H0L10.6514 36.8737H31.9585" fill="#FAFAFA"/>
</g>
<defs>
<clipPath id="clip0_1391_10080">
<rect width="64" height="82" fill="white"/>
</clipPath>
</defs>
</svg>
