<svg width="68" height="84" viewBox="0 0 68 84" fill="none" xmlns="http://www.w3.org/2000/svg">
<g opacity="0.2">
<path fill-rule="evenodd" clip-rule="evenodd" d="M45.725 75.645C44.0932 75.9379 42.8927 77.0337 42.4843 78.6029C42.3533 79.106 42.3499 80.1713 42.4777 80.6567C42.6192 81.1943 43.0018 81.9206 43.3402 82.2942C44.4414 83.51 46.4881 83.8932 48.0756 83.1807L48.3834 83.0426V82.4097C48.3834 82.0617 48.3705 81.7769 48.3546 81.7769C48.3388 81.7769 48.2288 81.8264 48.1103 81.8869C47.7343 82.0787 47.1275 82.2036 46.5724 82.2036C45.695 82.2036 45.1194 81.9803 44.6161 81.4446C44.2868 81.0942 44.1541 80.8776 44.0186 80.47C43.5049 78.9247 44.3273 77.3274 45.8176 76.976C46.2163 76.8819 47.0904 76.9348 47.4957 77.0775C47.6675 77.138 47.9382 77.2579 48.0972 77.3441L48.3864 77.5007L48.3716 76.7746L48.3568 76.0485L48.1167 75.9268C47.9847 75.8598 47.7326 75.7675 47.5566 75.7217C47.1646 75.6196 46.1119 75.5755 45.725 75.645ZM11.6918 76.0277C11.599 76.274 8.94153 83.1342 8.87005 83.312C8.84839 83.3659 9.00763 83.3771 9.62877 83.3653L10.4149 83.3506L10.6482 82.7104C10.7766 82.3583 10.9197 81.9683 10.9663 81.8436L11.0511 81.6169H12.5882H14.1252L14.4375 82.4963L14.7497 83.3757L15.5632 83.3765C16.0106 83.3769 16.3767 83.3581 16.3767 83.3348C16.3767 83.3115 15.722 81.6011 14.9217 79.534L13.4667 75.7756L12.6322 75.761L11.7978 75.7463L11.6918 76.0277ZM19.6308 79.5631V83.3772H20.3509H21.0711V81.8836V80.3899H22.5914H24.1117V79.7773V79.1647L22.6047 79.1505L21.0977 79.1363L21.0833 78.0828L21.0688 77.0292H22.6703H24.2717V76.3891V75.749H21.9512H19.6308V79.5631ZM27.8991 79.5631V83.3772H28.646H29.3928V81.9636V80.55H29.6758H29.9588L31.0898 81.9636L32.2209 83.3772H33.1318C33.6327 83.3772 34.0347 83.3579 34.0249 83.3342C34.0151 83.3105 33.467 82.6497 32.8068 81.8655C32.1467 81.0814 31.6005 80.4224 31.593 80.4009C31.5856 80.3795 31.7451 80.2848 31.9474 80.1905C32.7692 79.8076 33.2729 79.0969 33.326 78.2452C33.4027 77.0165 32.6401 76.1078 31.3021 75.8333C30.9846 75.7682 30.5499 75.749 29.395 75.749H27.8991V79.5631ZM37.2344 79.5631V83.3772H37.9813H38.7281V79.5631V75.749H37.9813H37.2344V79.5631ZM54.3211 75.8409C54.3021 75.893 53.6424 77.6019 52.8553 79.6384C52.0681 81.6748 51.4241 83.3499 51.4241 83.3606C51.4241 83.3713 51.775 83.3734 52.2039 83.3653L52.9838 83.3506L53.2895 82.497L53.5952 81.6435L55.139 81.6294L56.6827 81.6153L57.0006 82.4962L57.3186 83.3772H58.1321C58.5796 83.3772 58.9449 83.3592 58.944 83.3372C58.9431 83.3152 58.287 81.6049 57.4859 79.5364L56.0293 75.7756L55.1925 75.7609C54.4317 75.7476 54.3526 75.7548 54.3211 75.8409ZM31.2226 77.2078C31.5931 77.3898 31.7828 77.6449 31.8272 78.021C31.8726 78.4055 31.7714 78.7076 31.5099 78.9688C31.1895 79.2887 30.8764 79.3764 30.0535 79.3764H29.3928V78.1978V77.0192L30.153 77.0376C30.8613 77.0547 30.9342 77.0663 31.2226 77.2078ZM13.1652 78.963L13.6954 80.4433H12.5838H11.4722L11.6777 79.8698C11.7907 79.5545 12.0358 78.8713 12.2224 78.3517C12.409 77.8321 12.5781 77.424 12.5984 77.4448C12.6186 77.4656 12.8737 78.1488 13.1652 78.963ZM55.7111 78.9166C55.9938 79.7053 56.2251 80.3714 56.2251 80.3969C56.2251 80.4224 55.7304 80.4433 55.1258 80.4433C54.1004 80.4433 54.029 80.437 54.0633 80.3499C54.0835 80.2986 54.3301 79.6137 54.6113 78.8279C54.8926 78.042 55.1394 77.4179 55.1599 77.4409C55.1804 77.4639 55.4284 78.1279 55.7111 78.9166Z" fill="#FAFAFA"/>
<path fill-rule="evenodd" clip-rule="evenodd" d="M32.026 0.0509713C24.4118 0.463484 17.0602 3.51767 11.3202 8.65309C4.85944 14.4333 0.877812 22.3776 0.127682 30.985C-0.335988 36.3048 0.465299 41.6083 2.49703 46.6682C2.91066 47.6984 4.00204 49.9182 4.582 50.9091C7.55489 55.9883 11.783 60.2168 16.8761 63.2042C17.9623 63.8413 20.241 64.95 21.4104 65.4104C24.7772 66.7358 28.1299 67.4922 31.7235 67.737C32.7743 67.8085 35.1184 67.8085 36.1692 67.737C39.7629 67.4922 43.1156 66.7358 46.4823 65.4104C47.6517 64.95 49.9304 63.8413 51.0166 63.2042C56.1097 60.2168 60.3379 55.9883 63.3108 50.9091C63.8907 49.9182 64.9821 47.6984 65.3957 46.6682C68.7929 38.2078 68.7225 28.9867 65.197 20.6628C63.2962 16.1747 60.2707 11.9616 56.5726 8.65309C49.8373 2.62724 41.0853 -0.439798 32.026 0.0509713ZM29.6763 16.7657L33.7279 18.3538L36.9044 18.537C38.6516 18.6378 40.1069 18.7289 40.1384 18.7395C40.1701 18.75 41.422 20.7239 42.9205 23.1259L45.645 27.4932L48.0225 28.5856C49.3301 29.1864 50.4007 29.6961 50.4016 29.7181C50.4024 29.7402 49.4066 31.7513 48.1886 34.1872L45.974 38.616L46.1839 41.4272L46.3938 44.2384L46.0256 44.7198C45.8231 44.9846 44.2448 47.0376 42.5185 49.2821L39.3795 53.363L36.6763 53.3768C35.1895 53.3844 33.973 53.3762 33.973 53.3587C33.973 53.3411 32.8928 49.2259 31.5725 44.2138C30.2523 39.2017 29.172 35.0869 29.172 35.07C29.172 35.053 27.1355 35.0391 24.6464 35.0391H20.1206L20.0547 34.8945C19.637 33.9777 15.5147 24.3484 15.5265 24.3171C15.5353 24.2939 17.763 22.2206 20.4769 19.7099C24.0909 16.3665 25.4398 15.1493 25.5179 15.1613C25.5766 15.1703 27.4479 15.8923 29.6763 16.7657ZM49.6374 46.3855C50.1938 46.8418 50.4557 47.0899 50.4398 47.1456C50.3719 47.385 49.003 51.0223 48.9672 51.0587C48.9185 51.1083 45.7566 49.7489 45.7528 49.6768C45.7503 49.6296 48.7531 45.708 48.7917 45.708C48.8026 45.708 49.1832 46.0129 49.6374 46.3855Z" fill="#FAFAFA"/>
</g>
</svg>
