<svg width="109" height="60" viewBox="0 0 109 60" fill="none" xmlns="http://www.w3.org/2000/svg">
<g clip-path="url(#clip0_1390_10053)">
<g opacity="0.2">
<path d="M80.5661 19.6504H69.2232V16.5194C69.2232 13.7007 67.0378 11.5724 64.2734 11.5724H59.7069V6.75683C59.7069 5.27773 59.9434 5.14615 62.0228 5.14615C63.2541 5.14615 64.3387 4.10246 64.3387 2.81233C64.3387 1.56321 63.3682 0.536058 62.137 0.478516H57.3829C55.7927 0.478516 55.067 1.83438 55.067 2.81233V11.5724H50.2884C47.0757 11.5724 45.3877 14.087 45.3877 16.5194V19.6504H34.216C29.8941 19.6504 26.2899 22.6497 25.2624 26.6763H23.7783V24.3426C23.7783 23.0523 22.7427 22.0088 21.4624 22.0088C20.1821 22.0184 19.1465 23.0606 19.1465 24.3507V33.686C19.1465 34.9762 20.1821 36.0198 21.4624 36.0198C22.7427 36.0198 23.7783 34.9762 23.7783 33.686V31.3522H25.295C26.3387 35.3624 29.9267 38.3289 34.224 38.3289H80.5579C85.6789 38.3289 89.8296 34.1462 89.8296 28.9938C89.839 23.8331 85.6872 19.6504 80.5661 19.6504Z" fill="#FAFAFA"/>
<path d="M9.61032 44.5727V47.8639C8.38558 47.1473 7.1148 46.7889 5.79793 46.7889C5.20537 46.7889 4.7575 46.9084 4.44804 47.1539C4.13858 47.3994 3.98063 47.7113 3.98063 48.0896C3.98063 48.4678 4.17154 48.8128 4.54683 49.1047C4.92213 49.4033 5.4951 49.7151 6.24569 50.0535C6.71318 50.2658 7.10161 50.4517 7.4112 50.611C7.72065 50.7702 8.07618 50.9892 8.47783 51.2746C8.87947 51.5599 9.19546 51.8517 9.43254 52.1637C9.66968 52.4756 9.86712 52.8603 10.0318 53.3181C10.1963 53.7761 10.2819 54.2737 10.2819 54.8046C10.2819 56.1913 9.77501 57.3128 8.76093 58.1754C7.74704 59.038 6.40366 59.4693 4.7247 59.4693C2.92707 59.4693 1.45872 59.1508 0.326289 58.5072V54.9638C1.70246 55.9724 3.17069 56.4701 4.7247 56.4701C5.25142 56.4701 5.69257 56.3308 6.04158 56.0454C6.39053 55.7667 6.56173 55.3951 6.56173 54.9372C6.56173 54.7846 6.54218 54.6387 6.49533 54.506C6.44942 54.3666 6.36371 54.2405 6.24523 54.1145C6.12676 53.9951 6.00814 53.8888 5.89626 53.8092C5.78427 53.7227 5.61311 53.6235 5.39584 53.5106C5.17851 53.3979 4.99417 53.2983 4.84268 53.2253C4.69126 53.1525 4.46739 53.0395 4.17108 52.9069C3.87483 52.7675 3.63778 52.6613 3.45334 52.5883C2.47227 52.1305 1.68218 51.5665 1.08295 50.8963C0.483845 50.2262 0.1875 49.3369 0.1875 48.2222C0.1875 46.8951 0.674772 45.8269 1.64263 45.0107C2.61056 44.1946 3.94729 43.7898 5.65914 43.7898C7.1868 43.7993 8.50366 44.0551 9.60986 44.5727H9.61032ZM19.5792 47.7046H22.8911V59.2968H19.5792V57.4454C18.9734 58.7394 17.8079 59.3897 16.0828 59.3897C14.9042 59.3897 13.9824 59.0579 13.3239 58.3943C12.6655 57.7308 12.3362 56.7554 12.3362 55.4548V47.7046H15.6483V54.6984C15.6483 56.052 16.2408 56.7355 17.4195 56.7355C18.8548 56.7355 19.5725 55.7667 19.5725 53.8292V47.7046H19.5792ZM28.8765 43.1328V49.4896C29.66 48.2089 30.8057 47.5719 32.3004 47.5719C33.7357 47.5719 34.9209 48.0962 35.8624 49.1511C36.7975 50.1996 37.2715 51.6462 37.2715 53.4708C37.2715 55.1032 36.8239 56.5033 35.9218 57.6777C35.0198 58.8522 33.8213 59.4361 32.3267 59.4361C30.7991 59.4361 29.6468 58.7858 28.8765 57.4919V59.2968H25.5644V43.1328H28.8765ZM31.4114 56.6427C32.1093 56.6427 32.6955 56.3572 33.1827 55.7867C33.6699 55.2159 33.907 54.4662 33.907 53.5371C33.907 52.5286 33.6698 51.7457 33.1892 51.1817C32.7151 50.6176 32.1292 50.3389 31.4312 50.3389C30.7332 50.3389 30.134 50.6044 29.6271 51.1418C29.12 51.6726 28.8699 52.4224 28.8699 53.3847C28.8699 54.3733 29.1069 55.1695 29.5744 55.76C30.0484 56.344 30.6608 56.6427 31.4114 56.6427ZM42.6774 47.7046V49.5095C43.3095 48.2289 44.3959 47.5918 45.9235 47.5918C47.5434 47.5918 48.6166 48.3217 49.1433 49.7882C49.4001 49.1047 49.8282 48.5673 50.4338 48.1757C51.0397 47.7842 51.7508 47.5918 52.5672 47.5918C53.6998 47.5918 54.5952 47.9568 55.2536 48.68C55.9121 49.4033 56.2414 50.465 56.2414 51.8717V59.3033H52.9294V52.4158C52.9294 51.7588 52.7977 51.2414 52.5409 50.8632C52.2841 50.4848 51.9153 50.2925 51.4281 50.2925C50.9145 50.2925 50.4536 50.5048 50.0585 50.9228C49.6569 51.3408 49.4594 52.0907 49.4594 53.1723V59.2968H46.1474V52.4158C46.1474 51.7588 46.0157 51.2414 45.759 50.8632C45.5022 50.4848 45.1334 50.2925 44.6462 50.2925C44.1326 50.2925 43.6717 50.5048 43.2766 50.9228C42.8749 51.3408 42.6774 52.0907 42.6774 53.1723V59.2968H39.3655V47.7046H42.6774ZM59.0726 51.2746V48.282C59.9813 47.7644 61.2851 47.5056 62.997 47.5056C64.63 47.5056 65.848 47.8573 66.6514 48.5673C67.4547 49.2774 67.8563 50.3787 67.8563 51.8717V59.3033H64.6102V57.8768C64.1229 58.8654 63.1747 59.3631 61.7525 59.3631C60.6332 59.3631 59.7575 59.0446 59.1319 58.401C58.5064 57.764 58.1903 56.9611 58.1903 55.999C58.1903 54.8842 58.592 54.0216 59.4019 53.4045C60.2118 52.7874 61.4102 52.4755 62.997 52.4755H64.4456V51.6726C64.4456 50.6973 63.8002 50.2062 62.5163 50.2062C61.285 50.2202 60.1328 50.5712 59.0726 51.2746ZM64.4522 54.5391H63.3855C62.8258 54.5391 62.3978 54.6585 62.0949 54.9041C61.7921 55.1496 61.6406 55.4615 61.6406 55.8397C61.6406 56.616 62.0882 57.0075 62.9772 57.0075C63.4447 57.0075 63.8069 56.8615 64.0637 56.5762C64.3205 56.2843 64.4522 55.8929 64.4522 55.3885V54.5391ZM73.7494 47.7046V49.8546C73.9602 49.1844 74.3156 48.6469 74.8029 48.2421C75.2967 47.8374 75.863 47.6383 76.5149 47.6383C76.877 47.6383 77.1667 47.6718 77.3774 47.7306V50.8825C77.0152 50.7166 76.6005 50.6304 76.1329 50.6304C75.4218 50.6304 74.8489 50.8958 74.4078 51.42C73.9667 51.9443 73.7494 52.6409 73.7494 53.5101V59.2963H70.4374L70.4569 47.7041L73.7494 47.7046ZM79.2145 46.4506C78.8392 46.0724 78.6482 45.6144 78.6482 45.077C78.6482 44.5461 78.8392 44.0884 79.2145 43.7034C79.5898 43.3252 80.0441 43.1328 80.5775 43.1328C81.1042 43.1328 81.5586 43.3252 81.9404 43.7034C82.3158 44.0816 82.5066 44.5396 82.5066 45.077C82.5066 45.6078 82.3158 46.0657 81.9404 46.4506C81.5651 46.8288 81.1108 47.0212 80.5775 47.0212C80.0507 47.0212 79.5964 46.8288 79.2145 46.4506ZM78.9248 59.2968V47.7046H82.2367V59.2968H78.9248ZM88.2813 47.7046V49.6687C88.571 49.0317 89.0121 48.5208 89.6112 48.1493C90.2105 47.7776 90.9215 47.5918 91.7578 47.5918C92.9364 47.5918 93.8583 47.9436 94.5234 48.6535C95.1883 49.3635 95.5241 50.4053 95.5241 51.7721V59.2968H92.2122V52.3959C92.2122 51.7124 92.0541 51.1883 91.738 50.8299C91.422 50.4716 90.9743 50.2925 90.4014 50.2925C89.7957 50.2925 89.2952 50.5314 88.8936 51.0157C88.4919 51.4935 88.2944 52.2168 88.2944 53.179V59.3033H84.9824V47.7046H88.2813ZM103.169 59.4758C101.371 59.4758 99.9751 58.9318 98.9941 57.8436C98.013 56.7554 97.5192 55.3553 97.5192 53.65C97.5192 51.8651 98.0328 50.3987 99.0599 49.2507C100.087 48.1028 101.457 47.5255 103.169 47.5255C104.953 47.5255 106.336 48.0829 107.317 49.1976C108.298 50.3123 108.792 51.7258 108.792 53.4509C108.792 55.2027 108.298 56.6492 107.304 57.7839C106.316 58.9119 104.94 59.4758 103.169 59.4758ZM103.142 50.1531C102.418 50.1531 101.872 50.465 101.509 51.0887C101.147 51.7124 100.963 52.5219 100.963 53.5106C100.963 54.4993 101.147 55.3154 101.516 55.9458C101.885 56.5762 102.444 56.8947 103.182 56.8947C103.906 56.8947 104.446 56.5829 104.802 55.9658C105.157 55.3487 105.335 54.5458 105.335 53.5504C105.349 51.2878 104.611 50.1531 103.142 50.1531Z" fill="#FAFAFA"/>
</g>
</g>
<defs>
<clipPath id="clip0_1390_10053">
<rect width="109" height="60" fill="white"/>
</clipPath>
</defs>
</svg>
