<svg width="118" height="37" viewBox="0 0 118 37" fill="none" xmlns="http://www.w3.org/2000/svg">
<g opacity="0.2">
<path d="M4.58599 1.06445C3.97268 1.06445 3.49593 1.54282 3.49593 2.15821C3.49593 2.77359 3.97268 3.25196 4.58599 3.25196C5.1993 3.25196 5.67738 2.77359 5.67738 2.15821C5.67738 1.54282 5.1993 1.06445 4.58599 1.06445ZM10.2426 1.06445C9.62927 1.06445 9.15252 1.54282 9.15252 2.15821C9.15252 2.77359 9.62927 3.25196 10.2426 3.25196C10.8559 3.25196 11.3326 2.77359 11.3326 2.15821C11.3326 1.54282 10.8559 1.06445 10.2426 1.06445ZM44.5202 1.06445C43.9069 1.06445 43.4288 1.54282 43.4288 2.15821C43.4288 2.77359 43.9069 3.25196 44.5202 3.25196C45.1335 3.25196 45.6102 2.77359 45.6102 2.15821C45.6102 1.54282 45.1335 1.06445 44.5202 1.06445ZM50.2433 1.06445C49.63 1.06445 49.1532 1.54282 49.1532 2.15821C49.1532 2.77359 49.63 3.25196 50.2433 3.25196C50.8566 3.25196 51.3347 2.77359 51.3347 2.15821C51.3347 1.54282 50.8566 1.06445 50.2433 1.06445ZM60.3972 1.06445C59.7839 1.06445 59.3071 1.54282 59.3071 2.15821C59.3071 2.77359 59.7839 3.25196 60.3972 3.25196C61.0105 3.25196 61.4872 2.77359 61.4872 2.15821C61.4872 1.54282 61.0105 1.06445 60.3972 1.06445ZM66.0538 1.06445C65.4405 1.06445 64.9637 1.54282 64.9637 2.15821C64.9637 2.77359 65.4405 3.25196 66.0538 3.25196C66.6671 3.25196 67.1438 2.77359 67.1438 2.15821C67.1438 1.54282 66.6671 1.06445 66.0538 1.06445V1.06445ZM71.7782 1.06445C71.1649 1.06445 70.6869 1.54282 70.6869 2.15821C70.6869 2.77359 71.1649 3.25196 71.7782 3.25196C72.3915 3.25196 72.8683 2.77359 72.8683 2.15821C72.8683 1.54282 72.3915 1.06445 71.7782 1.06445ZM95.9006 1.06445C95.2873 1.06445 94.8105 1.54282 94.8105 2.15821C94.8105 2.77359 95.2873 3.25196 95.9006 3.25196C96.5139 3.25196 96.992 2.77359 96.992 2.15821C96.992 1.54282 96.5139 1.06445 95.9006 1.06445ZM101.557 1.06445C100.944 1.06445 100.467 1.54282 100.467 2.15821C100.467 2.77359 100.944 3.25196 101.557 3.25196C102.17 3.25196 102.647 2.77359 102.647 2.15821C102.647 1.54282 102.17 1.06445 101.557 1.06445ZM27.3468 1.47444C26.9379 1.47444 26.6653 1.81632 26.6653 2.15821C26.6653 2.56846 27.006 2.84197 27.3468 2.84197C27.7556 2.84197 28.0282 2.50009 28.0282 2.15821C28.0964 1.74795 27.7556 1.47444 27.3468 1.47444V1.47444ZM77.5014 1.47444C77.0925 1.47444 76.8199 1.81632 76.8199 2.15821C76.8199 2.56846 77.1606 2.84197 77.5014 2.84197C77.9102 2.84197 78.1828 2.50009 78.1828 2.15821C78.1828 1.74795 77.8421 1.47444 77.5014 1.47444V1.47444ZM107.282 1.47444C106.873 1.47444 106.6 1.81632 106.6 2.15821C106.6 2.56846 106.941 2.84197 107.282 2.84197C107.691 2.84197 107.963 2.50009 107.963 2.15821C107.963 1.74795 107.691 1.47444 107.282 1.47444V1.47444ZM7.44889 2.70575C6.83559 2.70575 6.35883 3.18412 6.35883 3.7995C6.35883 4.41489 6.83559 4.89325 7.44889 4.89325C8.0622 4.89325 8.53894 4.41489 8.53894 3.7995C8.53894 3.18412 8.0622 2.70575 7.44889 2.70575ZM47.3817 2.70575C46.7684 2.70575 46.2917 3.18412 46.2917 3.7995C46.2917 4.41489 46.7684 4.89325 47.3817 4.89325C47.995 4.89325 48.4718 4.41489 48.4718 3.7995C48.4718 3.18412 47.995 2.70575 47.3817 2.70575ZM63.1909 2.70575C62.5776 2.70575 62.1008 3.18412 62.1008 3.7995C62.1008 4.41489 62.5776 4.89325 63.1909 4.89325C63.8042 4.89325 64.2823 4.41489 64.2823 3.7995C64.3504 3.18412 63.8042 2.70575 63.1909 2.70575ZM68.9153 2.70575C68.302 2.70575 67.8253 3.18412 67.8253 3.7995C67.8253 4.41489 68.302 4.89325 68.9153 4.89325C69.5287 4.89325 70.0054 4.41489 70.0054 3.7995C70.0735 3.18412 69.5287 2.70575 68.9153 2.70575ZM74.6398 2.70575C74.0265 2.70575 73.5498 3.18412 73.5498 3.7995C73.5498 4.41489 74.0265 4.89325 74.6398 4.89325C75.2531 4.89325 75.7299 4.41489 75.7299 3.7995C75.7299 3.18412 75.2531 2.70575 74.6398 2.70575ZM93.039 2.70575C92.4257 2.70575 91.949 3.18412 91.949 3.7995C91.949 4.41489 92.4257 4.89325 93.039 4.89325C93.6523 4.89325 94.1291 4.41489 94.1291 3.7995C94.1291 3.18412 93.6523 2.70575 93.039 2.70575ZM98.6956 2.70575C98.0823 2.70575 97.6042 3.18412 97.6042 3.7995C97.6042 4.41489 98.0823 4.89325 98.6956 4.89325C99.3089 4.89325 99.7857 4.41489 99.7857 3.7995C99.8538 3.18412 99.3089 2.70575 98.6956 2.70575ZM104.419 2.70575C103.805 2.70575 103.329 3.18412 103.329 3.7995C103.329 4.41489 103.805 4.89325 104.419 4.89325C105.032 4.89325 105.51 4.41489 105.51 3.7995C105.51 3.18412 105.032 2.70575 104.419 2.70575ZM110.143 2.70575C109.53 2.70575 109.053 3.18412 109.053 3.7995C109.053 4.41489 109.53 4.89325 110.143 4.89325C110.757 4.89325 111.233 4.41489 111.233 3.7995C111.233 3.18412 110.757 2.70575 110.143 2.70575V2.70575ZM1.72442 3.11574C1.31555 3.11574 1.04297 3.45762 1.04297 3.7995C1.04297 4.20976 1.38369 4.48326 1.72442 4.48326C2.13329 4.48326 2.40587 4.14138 2.40587 3.7995C2.47402 3.45762 2.13329 3.11574 1.72442 3.11574ZM24.5531 3.11574C24.1442 3.11574 23.8716 3.45762 23.8716 3.7995C23.8716 4.20976 24.2123 4.48326 24.5531 4.48326C24.9619 4.48326 25.2345 4.14138 25.2345 3.7995C25.2345 3.45762 24.8938 3.11574 24.5531 3.11574ZM30.2097 3.11574C29.8008 3.11574 29.5282 3.45762 29.5282 3.7995C29.5282 4.20976 29.8689 4.48326 30.2097 4.48326C30.6185 4.48326 30.8911 4.14138 30.8911 3.7995C30.8911 3.45762 30.6185 3.11574 30.2097 3.11574ZM53.0383 3.11574C52.6294 3.11574 52.3569 3.45762 52.3569 3.7995C52.3569 4.20976 52.6976 4.48326 53.0383 4.48326C53.4472 4.48326 53.7198 4.14138 53.7198 3.7995C53.7198 3.45762 53.4472 3.11574 53.0383 3.11574ZM80.3643 3.11574C79.9554 3.11574 79.6828 3.45762 79.6828 3.7995C79.6828 4.20976 80.0235 4.48326 80.3643 4.48326C80.7731 4.48326 81.0457 4.14138 81.0457 3.7995C81.0457 3.45762 80.705 3.11574 80.3643 3.11574ZM4.58599 4.34704C3.97268 4.34704 3.49593 4.82541 3.49593 5.4408C3.49593 6.05618 3.97268 6.53455 4.58599 6.53455C5.1993 6.53455 5.67738 6.05618 5.67738 5.4408C5.74553 4.82541 5.1993 4.34704 4.58599 4.34704ZM10.2426 4.34704C9.62927 4.34704 9.15252 4.82541 9.15252 5.4408C9.15252 6.05618 9.62927 6.53455 10.2426 6.53455C10.8559 6.53455 11.3326 6.05618 11.3326 5.4408C11.3326 4.82541 10.8559 4.34704 10.2426 4.34704ZM27.3468 4.34704C26.7335 4.34704 26.2567 4.82541 26.2567 5.4408C26.2567 6.05618 26.7335 6.53455 27.3468 6.53455C27.9601 6.53455 28.4368 6.05618 28.4368 5.4408C28.505 4.82541 27.9601 4.34704 27.3468 4.34704ZM44.5202 4.34704C43.9069 4.34704 43.4288 4.82541 43.4288 5.4408C43.4288 6.05618 43.9069 6.53455 44.5202 6.53455C45.1335 6.53455 45.6102 6.05618 45.6102 5.4408C45.6102 4.82541 45.1335 4.34704 44.5202 4.34704V4.34704ZM50.2433 4.34704C49.63 4.34704 49.1532 4.82541 49.1532 5.4408C49.1532 6.05618 49.63 6.53455 50.2433 6.53455C50.8566 6.53455 51.3347 6.05618 51.3347 5.4408C51.3347 4.82541 50.8566 4.34704 50.2433 4.34704ZM60.3972 4.34704C59.7839 4.34704 59.3071 4.82541 59.3071 5.4408C59.3071 6.05618 59.7839 6.53455 60.3972 6.53455C61.0105 6.53455 61.4872 6.05618 61.4872 5.4408C61.4872 4.82541 61.0105 4.34704 60.3972 4.34704ZM66.0538 4.34704C65.4405 4.34704 64.9637 4.82541 64.9637 5.4408C64.9637 6.05618 65.4405 6.53455 66.0538 6.53455C66.6671 6.53455 67.1438 6.05618 67.1438 5.4408C67.212 4.82541 66.6671 4.34704 66.0538 4.34704V4.34704ZM71.7782 4.34704C71.1649 4.34704 70.6869 4.82541 70.6869 5.4408C70.6869 6.05618 71.1649 6.53455 71.7782 6.53455C72.3915 6.53455 72.8683 6.05618 72.8683 5.4408C72.8683 4.82541 72.3915 4.34704 71.7782 4.34704ZM77.5014 4.34704C76.8881 4.34704 76.4113 4.82541 76.4113 5.4408C76.4113 6.05618 76.8881 6.53455 77.5014 6.53455C78.1147 6.53455 78.5928 6.05618 78.5928 5.4408C78.5928 4.82541 78.1147 4.34704 77.5014 4.34704ZM95.9006 4.34704C95.2873 4.34704 94.8105 4.82541 94.8105 5.4408C94.8105 6.05618 95.2873 6.53455 95.9006 6.53455C96.5139 6.53455 96.992 6.05618 96.992 5.4408C96.992 4.82541 96.5139 4.34704 95.9006 4.34704ZM101.557 4.34704C100.944 4.34704 100.467 4.82541 100.467 5.4408C100.467 6.05618 100.944 6.53455 101.557 6.53455C102.17 6.53455 102.647 6.05618 102.647 5.4408C102.715 4.82541 102.17 4.34704 101.557 4.34704ZM107.282 4.34704C106.668 4.34704 106.192 4.82541 106.192 5.4408C106.192 6.05618 106.668 6.53455 107.282 6.53455C107.895 6.53455 108.372 6.05618 108.372 5.4408C108.372 4.82541 107.895 4.34704 107.282 4.34704ZM113.006 4.34704C112.393 4.34704 111.915 4.82541 111.915 5.4408C111.915 6.05618 112.393 6.53455 113.006 6.53455C113.619 6.53455 114.096 6.05618 114.096 5.4408C114.096 4.82541 113.619 4.34704 113.006 4.34704ZM24.5531 5.98701C23.9398 5.98701 23.463 6.46671 23.463 7.08209C23.463 7.69748 23.9398 8.17585 24.5531 8.17585C25.1664 8.17585 25.6431 7.69748 25.6431 7.08209C25.6431 6.46671 25.1664 5.98701 24.5531 5.98701V5.98701ZM30.2097 5.98701C29.5964 5.98701 29.1183 6.46671 29.1183 7.08209C29.1183 7.69748 29.5964 8.17585 30.2097 8.17585C30.823 8.17585 31.2997 7.69748 31.2997 7.08209C31.2997 6.46671 30.823 5.98701 30.2097 5.98701V5.98701ZM47.3817 5.98701C46.7684 5.98701 46.2917 6.46671 46.2917 7.08209C46.2917 7.69748 46.7684 8.17585 47.3817 8.17585C47.995 8.17585 48.4718 7.69748 48.4718 7.08209C48.4718 6.46671 47.995 5.98701 47.3817 5.98701V5.98701ZM63.1909 5.98701C62.5776 5.98701 62.1008 6.46671 62.1008 7.08209C62.1008 7.69748 62.5776 8.17585 63.1909 8.17585C63.8042 8.17585 64.2823 7.69748 64.2823 7.08209C64.2823 6.46671 63.8042 5.98701 63.1909 5.98701V5.98701ZM68.9153 5.98701C68.302 5.98701 67.8253 6.46671 67.8253 7.08209C67.8253 7.69748 68.302 8.17585 68.9153 8.17585C69.5287 8.17585 70.0054 7.69748 70.0054 7.08209C70.0054 6.46671 69.5287 5.98701 68.9153 5.98701V5.98701ZM74.6398 5.98701C74.0265 5.98701 73.5498 6.46671 73.5498 7.08209C73.5498 7.69748 74.0265 8.17585 74.6398 8.17585C75.2531 8.17585 75.7299 7.69748 75.7299 7.08209C75.7299 6.46671 75.2531 5.98701 74.6398 5.98701V5.98701ZM80.3643 5.98701C79.751 5.98701 79.2742 6.46671 79.2742 7.08209C79.2742 7.69748 79.751 8.17585 80.3643 8.17585C80.9776 8.17585 81.4543 7.69748 81.4543 7.08209C81.4543 6.46671 80.9776 5.98701 80.3643 5.98701V5.98701ZM93.039 5.98701C92.4257 5.98701 91.949 6.46671 91.949 7.08209C91.949 7.69748 92.4257 8.17585 93.039 8.17585C93.6523 8.17585 94.1291 7.69748 94.1291 7.08209C94.1291 6.46671 93.6523 5.98701 93.039 5.98701V5.98701ZM98.6956 5.98701C98.0823 5.98701 97.6042 6.46671 97.6042 7.08209C97.6042 7.69748 98.0823 8.17585 98.6956 8.17585C99.3089 8.17585 99.7857 7.69748 99.7857 7.08209C99.7857 6.46671 99.3089 5.98701 98.6956 5.98701V5.98701ZM104.419 5.98701C103.805 5.98701 103.329 6.46671 103.329 7.08209C103.329 7.69748 103.805 8.17585 104.419 8.17585C105.032 8.17585 105.51 7.69748 105.51 7.08209C105.51 6.46671 105.032 5.98701 104.419 5.98701V5.98701ZM110.143 5.98701C109.53 5.98701 109.053 6.46671 109.053 7.08209C109.053 7.69748 109.53 8.17585 110.143 8.17585C110.757 8.17585 111.233 7.69748 111.233 7.08209C111.233 6.46671 110.757 5.98701 110.143 5.98701V5.98701ZM7.44889 6.05645C6.83559 6.05645 6.35883 6.53482 6.35883 7.1502C6.35883 7.69721 6.83559 8.24396 7.44889 8.24396C8.0622 8.24396 8.53894 7.76559 8.53894 7.1502C8.53894 6.53482 8.0622 6.05645 7.44889 6.05645ZM13.1041 6.39833C12.6953 6.39833 12.4227 6.74021 12.4227 7.08209C12.4227 7.49235 12.7634 7.76586 13.1041 7.76586C13.513 7.76586 13.7856 7.42398 13.7856 7.08209C13.7856 6.74021 13.513 6.39833 13.1041 6.39833ZM41.6573 6.39833C41.2484 6.39833 40.9758 6.74021 40.9758 7.08209C40.9758 7.49235 41.3165 7.76586 41.6573 7.76586C41.998 7.76586 42.3387 7.42398 42.3387 7.08209C42.3387 6.74021 41.998 6.39833 41.6573 6.39833ZM115.868 6.39833C115.459 6.39833 115.186 6.74021 115.186 7.08209C115.186 7.49235 115.527 7.76586 115.868 7.76586C116.277 7.76586 116.549 7.42398 116.549 7.08209C116.549 6.74021 116.208 6.39833 115.868 6.39833ZM4.58599 7.6283C3.97268 7.6283 3.49593 8.10667 3.49593 8.72206C3.49593 9.33744 3.97268 9.81714 4.58599 9.81714C5.1993 9.81714 5.67738 9.33744 5.67738 8.72206C5.67738 8.10667 5.1993 7.6283 4.58599 7.6283ZM10.2426 7.6283C9.62927 7.6283 9.15252 8.10667 9.15252 8.72206C9.15252 9.33744 9.62927 9.81714 10.2426 9.81714C10.8559 9.81714 11.3326 9.33744 11.3326 8.72206C11.3326 8.10667 10.8559 7.6283 10.2426 7.6283ZM27.3468 7.6283C26.7335 7.6283 26.2567 8.10667 26.2567 8.72206C26.2567 9.33744 26.7335 9.81714 27.3468 9.81714C27.9601 9.81714 28.4368 9.33744 28.4368 8.72206C28.4368 8.10667 27.9601 7.6283 27.3468 7.6283ZM44.5202 7.6283C43.9069 7.6283 43.4288 8.10667 43.4288 8.72206C43.4288 9.33744 43.9069 9.81714 44.5202 9.81714C45.1335 9.81714 45.6102 9.33744 45.6102 8.72206C45.6102 8.10667 45.1335 7.6283 44.5202 7.6283V7.6283ZM60.3972 7.6283C59.7839 7.6283 59.3071 8.10667 59.3071 8.72206C59.3071 9.33744 59.7839 9.81714 60.3972 9.81714C61.0105 9.81714 61.4872 9.33744 61.4872 8.72206C61.4872 8.10667 61.0105 7.6283 60.3972 7.6283ZM66.0538 7.6283C65.4405 7.6283 64.9637 8.10667 64.9637 8.72206C64.9637 9.33744 65.4405 9.81714 66.0538 9.81714C66.6671 9.81714 67.1438 9.33744 67.1438 8.72206C67.1438 8.10667 66.6671 7.6283 66.0538 7.6283ZM71.7782 7.6283C71.1649 7.6283 70.6869 8.10667 70.6869 8.72206C70.6869 9.33744 71.1649 9.81714 71.7782 9.81714C72.3915 9.81714 72.8683 9.33744 72.8683 8.72206C72.8683 8.10667 72.3915 7.6283 71.7782 7.6283ZM77.5014 7.6283C76.8881 7.6283 76.4113 8.10667 76.4113 8.72206C76.4113 9.33744 76.8881 9.81714 77.5014 9.81714C78.1147 9.81714 78.5928 9.33744 78.5928 8.72206C78.5928 8.10667 78.1147 7.6283 77.5014 7.6283ZM83.2258 7.6283C82.6125 7.6283 82.1358 8.10667 82.1358 8.72206C82.1358 9.33744 82.6125 9.81714 83.2258 9.81714C83.8391 9.81714 84.3159 9.33744 84.3159 8.72206C84.3159 8.10667 83.8391 7.6283 83.2258 7.6283ZM95.9006 7.6283C95.2873 7.6283 94.8105 8.10667 94.8105 8.72206C94.8105 9.33744 95.2873 9.81714 95.9006 9.81714C96.5139 9.81714 96.992 9.33744 96.992 8.72206C96.992 8.10667 96.5139 7.6283 95.9006 7.6283ZM101.557 7.6283C100.944 7.6283 100.467 8.10667 100.467 8.72206C100.467 9.33744 100.944 9.81714 101.557 9.81714C102.17 9.81714 102.647 9.33744 102.647 8.72206C102.647 8.10667 102.17 7.6283 101.557 7.6283ZM107.282 7.6283C106.668 7.6283 106.192 8.10667 106.192 8.72206C106.192 9.33744 106.668 9.81714 107.282 9.81714C107.895 9.81714 108.372 9.33744 108.372 8.72206C108.372 8.10667 107.895 7.6283 107.282 7.6283ZM113.006 7.6283C112.393 7.6283 111.915 8.10667 111.915 8.72206C111.915 9.33744 112.393 9.81714 113.006 9.81714C113.619 9.81714 114.096 9.33744 114.096 8.72206C114.096 8.10667 113.619 7.6283 113.006 7.6283ZM50.2433 7.69641C49.63 7.69641 49.1532 8.17611 49.1532 8.79149C49.1532 9.40688 49.63 9.88525 50.2433 9.88525C50.8566 9.88525 51.3347 9.40688 51.3347 8.79149C51.3347 8.17611 50.8566 7.69641 50.2433 7.69641ZM7.44889 9.3377C6.83559 9.3377 6.35883 9.81607 6.35883 10.4315C6.35883 11.0468 6.83559 11.5265 7.44889 11.5265C8.0622 11.5265 8.53894 11.0468 8.53894 10.4315C8.53894 9.81607 8.0622 9.3377 7.44889 9.3377ZM13.1041 9.3377C12.4908 9.3377 12.0141 9.81607 12.0141 10.4315C12.0141 11.0468 12.4908 11.5265 13.1041 11.5265C13.7174 11.5265 14.1955 11.0468 14.1955 10.4315C14.1955 9.81607 13.7174 9.3377 13.1041 9.3377ZM24.5531 9.3377C23.9398 9.3377 23.463 9.81607 23.463 10.4315C23.463 11.0468 23.9398 11.5265 24.5531 11.5265C25.1664 11.5265 25.6431 11.0468 25.6431 10.4315C25.6431 9.81607 25.1664 9.3377 24.5531 9.3377ZM30.2097 9.3377C29.5964 9.3377 29.1183 9.81607 29.1183 10.4315C29.1183 11.0468 29.5964 11.5265 30.2097 11.5265C30.823 11.5265 31.2997 11.0468 31.2997 10.4315C31.3679 9.81607 30.823 9.3377 30.2097 9.3377ZM41.6573 9.3377C41.0439 9.3377 40.5672 9.81607 40.5672 10.4315C40.5672 11.0468 41.0439 11.5265 41.6573 11.5265C42.2706 11.5265 42.7473 11.0468 42.7473 10.4315C42.7473 9.81607 42.2706 9.3377 41.6573 9.3377ZM47.3817 9.3377C46.7684 9.3377 46.2917 9.81607 46.2917 10.4315C46.2917 11.0468 46.7684 11.5265 47.3817 11.5265C47.995 11.5265 48.4718 11.0468 48.4718 10.4315C48.4718 9.81607 47.995 9.3377 47.3817 9.3377ZM63.1909 9.3377C62.5776 9.3377 62.1008 9.81607 62.1008 10.4315C62.1008 11.0468 62.5776 11.5265 63.1909 11.5265C63.8042 11.5265 64.2823 11.0468 64.2823 10.4315C64.3504 9.81607 63.8042 9.3377 63.1909 9.3377ZM80.3643 9.3377C79.751 9.3377 79.2742 9.81607 79.2742 10.4315C79.2742 11.0468 79.751 11.5265 80.3643 11.5265C80.9776 11.5265 81.4543 11.0468 81.4543 10.4315C81.4543 9.81607 80.9776 9.3377 80.3643 9.3377ZM93.039 9.3377C92.4257 9.3377 91.949 9.81607 91.949 10.4315C91.949 11.0468 92.4257 11.5265 93.039 11.5265C93.6523 11.5265 94.1291 11.0468 94.1291 10.4315C94.1291 9.81607 93.6523 9.3377 93.039 9.3377ZM98.6956 9.3377C98.0823 9.3377 97.6042 9.81607 97.6042 10.4315C97.6042 11.0468 98.0823 11.5265 98.6956 11.5265C99.3089 11.5265 99.7857 11.0468 99.7857 10.4315C99.8538 9.81607 99.3089 9.3377 98.6956 9.3377ZM110.143 9.3377C109.53 9.3377 109.053 9.81607 109.053 10.4315C109.053 11.0468 109.53 11.5265 110.143 11.5265C110.757 11.5265 111.233 11.0468 111.233 10.4315C111.233 9.81607 110.757 9.3377 110.143 9.3377ZM115.868 9.3377C115.254 9.3377 114.778 9.81607 114.778 10.4315C114.709 11.0468 115.254 11.5265 115.868 11.5265C116.481 11.5265 116.958 11.0468 116.958 10.4315C116.958 9.81607 116.481 9.3377 115.868 9.3377ZM68.9153 9.74769C68.5065 9.74769 68.2339 10.0896 68.2339 10.4315C68.2339 10.8417 68.5746 11.1152 68.9153 11.1152C69.3242 11.1152 69.5968 10.7733 69.5968 10.4315C69.5968 10.0212 69.3242 9.74769 68.9153 9.74769ZM74.6398 9.74769C74.2309 9.74769 73.9584 10.0896 73.9584 10.4315C73.9584 10.8417 74.2991 11.1152 74.6398 11.1152C75.0487 11.1152 75.3213 10.7733 75.3213 10.4315C75.3213 10.0212 75.0487 9.74769 74.6398 9.74769ZM104.419 9.74769C104.01 9.74769 103.737 10.0896 103.737 10.4315C103.737 10.8417 104.078 11.1152 104.419 11.1152C104.828 11.1152 105.1 10.7733 105.1 10.4315C105.1 10.0212 104.828 9.74769 104.419 9.74769ZM10.2426 10.979C9.62927 10.979 9.15252 11.4574 9.15252 12.0728C9.15252 12.6881 9.62927 13.1665 10.2426 13.1665C10.8559 13.1665 11.3326 12.6881 11.3326 12.0728C11.3326 11.4574 10.8559 10.979 10.2426 10.979ZM27.3468 10.979C26.7335 10.979 26.2567 11.4574 26.2567 12.0728C26.2567 12.6881 26.7335 13.1665 27.3468 13.1665C27.9601 13.1665 28.4368 12.6881 28.4368 12.0728C28.505 11.4574 27.9601 10.979 27.3468 10.979V10.979ZM44.5202 10.979C43.9069 10.979 43.4288 11.4574 43.4288 12.0728C43.4288 12.6881 43.9069 13.1665 44.5202 13.1665C45.1335 13.1665 45.6102 12.6881 45.6102 12.0728C45.6102 11.4574 45.1335 10.979 44.5202 10.979V10.979ZM60.3972 10.979C59.7839 10.979 59.3071 11.4574 59.3071 12.0728C59.3071 12.6881 59.7839 13.1665 60.3972 13.1665C61.0105 13.1665 61.4872 12.6881 61.4872 12.0728C61.4872 11.4574 61.0105 10.979 60.3972 10.979V10.979ZM66.0538 10.979C65.4405 10.979 64.9637 11.4574 64.9637 12.0728C64.9637 12.6881 65.4405 13.1665 66.0538 13.1665C66.6671 13.1665 67.1438 12.6881 67.1438 12.0728C67.212 11.4574 66.6671 10.979 66.0538 10.979V10.979ZM77.5014 10.979C76.8881 10.979 76.4113 11.4574 76.4113 12.0728C76.4113 12.6881 76.8881 13.1665 77.5014 13.1665C78.1147 13.1665 78.5928 12.6881 78.5928 12.0728C78.5928 11.4574 78.1147 10.979 77.5014 10.979V10.979ZM83.2258 10.979C82.6125 10.979 82.1358 11.4574 82.1358 12.0728C82.1358 12.6881 82.6125 13.1665 83.2258 13.1665C83.8391 13.1665 84.3159 12.6881 84.3159 12.0728C84.3159 11.4574 83.8391 10.979 83.2258 10.979V10.979ZM95.9006 10.979C95.2873 10.979 94.8105 11.4574 94.8105 12.0728C94.8105 12.6881 95.2873 13.1665 95.9006 13.1665C96.5139 13.1665 96.992 12.6881 96.992 12.0728C96.992 11.4574 96.5139 10.979 95.9006 10.979V10.979ZM113.006 10.979C112.393 10.979 111.915 11.4574 111.915 12.0728C111.915 12.6881 112.393 13.1665 113.006 13.1665C113.619 13.1665 114.096 12.6881 114.096 12.0728C114.096 11.4574 113.619 10.979 113.006 10.979V10.979ZM15.967 11.389C15.5582 11.389 15.2856 11.7309 15.2856 12.0728C15.2856 12.483 15.6263 12.7565 15.967 12.7565C16.3759 12.7565 16.6485 12.4146 16.6485 12.0728C16.6485 11.6625 16.3078 11.389 15.967 11.389V11.389ZM21.6915 11.389C21.2826 11.389 21.0101 11.7309 21.0101 12.0728C21.0101 12.483 21.3508 12.7565 21.6915 12.7565C22.1004 12.7565 22.373 12.4146 22.373 12.0728C22.373 11.6625 22.0322 11.389 21.6915 11.389V11.389ZM33.0712 11.389C32.6624 11.389 32.3898 11.7309 32.3898 12.0728C32.3898 12.483 32.7305 12.7565 33.0712 12.7565C33.4801 12.7565 33.7527 12.4146 33.7527 12.0728C33.7527 11.6625 33.4801 11.389 33.0712 11.389V11.389ZM38.7957 11.389C38.3868 11.389 38.1142 11.7309 38.1142 12.0728C38.1142 12.483 38.455 12.7565 38.7957 12.7565C39.2046 12.7565 39.4771 12.4146 39.4771 12.0728C39.4771 11.6625 39.2046 11.389 38.7957 11.389V11.389ZM13.1041 12.6203C12.4908 12.6203 12.0141 13.0987 12.0141 13.7141C12.0141 14.3294 12.4908 14.8078 13.1041 14.8078C13.7174 14.8078 14.1955 14.3294 14.1955 13.7141C14.1955 13.0987 13.7174 12.6203 13.1041 12.6203ZM24.5531 12.6203C23.9398 12.6203 23.463 13.0987 23.463 13.7141C23.463 14.3294 23.9398 14.8078 24.5531 14.8078C25.1664 14.8078 25.6431 14.3294 25.6431 13.7141C25.6431 13.0987 25.1664 12.6203 24.5531 12.6203ZM30.2097 12.6203C29.5964 12.6203 29.1183 13.0987 29.1183 13.7141C29.1183 14.3294 29.5964 14.8078 30.2097 14.8078C30.823 14.8078 31.2997 14.3294 31.2997 13.7141C31.3679 13.0987 30.823 12.6203 30.2097 12.6203ZM41.6573 12.6203C41.0439 12.6203 40.5672 13.0987 40.5672 13.7141C40.5672 14.3294 41.0439 14.8078 41.6573 14.8078C42.2706 14.8078 42.7473 14.3294 42.7473 13.7141C42.7473 13.0987 42.2706 12.6203 41.6573 12.6203ZM63.1909 12.6203C62.5776 12.6203 62.1008 13.0987 62.1008 13.7141C62.1008 14.3294 62.5776 14.8078 63.1909 14.8078C63.8042 14.8078 64.2823 14.3294 64.2823 13.7141C64.3504 13.0987 63.8042 12.6203 63.1909 12.6203ZM80.3643 12.6203C79.751 12.6203 79.2742 13.0987 79.2742 13.7141C79.2742 14.3294 79.751 14.8078 80.3643 14.8078C80.9776 14.8078 81.4543 14.3294 81.4543 13.7141C81.4543 13.0987 80.9776 12.6203 80.3643 12.6203ZM93.039 12.6203C92.4257 12.6203 91.949 13.0987 91.949 13.7141C91.949 14.3294 92.4257 14.8078 93.039 14.8078C93.6523 14.8078 94.1291 14.3294 94.1291 13.7141C94.1291 13.0987 93.6523 12.6203 93.039 12.6203ZM98.6956 12.6203C98.0823 12.6203 97.6042 13.0987 97.6042 13.7141C97.6042 14.3294 98.0823 14.8078 98.6956 14.8078C99.3089 14.8078 99.7857 14.3294 99.7857 13.7141C99.8538 13.0987 99.3089 12.6203 98.6956 12.6203ZM110.143 12.6203C109.53 12.6203 109.053 13.0987 109.053 13.7141C109.053 14.3294 109.53 14.8078 110.143 14.8078C110.757 14.8078 111.233 14.3294 111.233 13.7141C111.233 13.0987 110.757 12.6203 110.143 12.6203ZM115.868 12.6203C115.254 12.6203 114.778 13.0987 114.778 13.7141C114.778 14.3294 115.254 14.8078 115.868 14.8078C116.481 14.8078 116.958 14.3294 116.958 13.7141C116.958 13.0987 116.481 12.6203 115.868 12.6203ZM7.44889 12.6884C6.83559 12.6884 6.35883 13.1668 6.35883 13.7822C6.35883 14.3292 6.83559 14.8759 7.44889 14.8759C8.0622 14.8759 8.53894 14.3975 8.53894 13.7822C8.53894 13.1668 8.0622 12.6884 7.44889 12.6884ZM47.3817 12.6884C46.7684 12.6884 46.2917 13.1668 46.2917 13.7822C46.2235 14.3292 46.7684 14.8759 47.3817 14.8759C47.995 14.8759 48.4718 14.3975 48.4718 13.7822C48.4718 13.1668 47.995 12.6884 47.3817 12.6884ZM10.2426 14.2616C9.62927 14.2616 9.15252 14.74 9.15252 15.3553C9.15252 15.9707 9.62927 16.4491 10.2426 16.4491C10.8559 16.4491 11.3326 15.9707 11.3326 15.3553C11.3326 14.74 10.8559 14.2616 10.2426 14.2616ZM21.6915 14.2616C21.0782 14.2616 20.6001 14.74 20.6001 15.3553C20.6001 15.9707 21.0782 16.4491 21.6915 16.4491C22.3048 16.4491 22.7816 15.9707 22.7816 15.3553C22.7816 14.74 22.3048 14.2616 21.6915 14.2616ZM27.3468 14.2616C26.7335 14.2616 26.2567 14.74 26.2567 15.3553C26.2567 15.9707 26.7335 16.4491 27.3468 16.4491C27.9601 16.4491 28.4368 15.9707 28.4368 15.3553C28.505 14.74 27.9601 14.2616 27.3468 14.2616ZM33.0712 14.2616C32.4579 14.2616 31.9812 14.74 31.9812 15.3553C31.9812 15.9707 32.4579 16.4491 33.0712 16.4491C33.6845 16.4491 34.1613 15.9707 34.1613 15.3553C34.2294 14.74 33.6845 14.2616 33.0712 14.2616ZM44.5202 14.2616C43.9069 14.2616 43.4288 14.74 43.4288 15.3553C43.4288 15.9707 43.9069 16.4491 44.5202 16.4491C45.1335 16.4491 45.6102 15.9707 45.6102 15.3553C45.6102 14.74 45.1335 14.2616 44.5202 14.2616V14.2616ZM60.3972 14.2616C59.7839 14.2616 59.3071 14.74 59.3071 15.3553C59.3071 15.9707 59.7839 16.4491 60.3972 16.4491C61.0105 16.4491 61.4872 15.9707 61.4872 15.3553C61.4872 14.74 61.0105 14.2616 60.3972 14.2616ZM66.0538 14.2616C65.4405 14.2616 64.9637 14.74 64.9637 15.3553C64.9637 15.9707 65.4405 16.4491 66.0538 16.4491C66.6671 16.4491 67.1438 15.9707 67.1438 15.3553C67.212 14.74 66.6671 14.2616 66.0538 14.2616ZM77.5014 14.2616C76.8881 14.2616 76.4113 14.74 76.4113 15.3553C76.4113 15.9707 76.8881 16.4491 77.5014 16.4491C78.1147 16.4491 78.5928 15.9707 78.5928 15.3553C78.5928 14.74 78.1147 14.2616 77.5014 14.2616ZM83.2258 14.2616C82.6125 14.2616 82.1358 14.74 82.1358 15.3553C82.1358 15.9707 82.6125 16.4491 83.2258 16.4491C83.8391 16.4491 84.3159 15.9707 84.3159 15.3553C84.3159 14.74 83.8391 14.2616 83.2258 14.2616ZM95.9006 14.2616C95.2873 14.2616 94.8105 14.74 94.8105 15.3553C94.8105 15.9707 95.2873 16.4491 95.9006 16.4491C96.5139 16.4491 96.992 15.9707 96.992 15.3553C96.992 14.74 96.5139 14.2616 95.9006 14.2616ZM113.006 14.2616C112.393 14.2616 111.915 14.74 111.915 15.3553C111.915 15.9707 112.393 16.4491 113.006 16.4491C113.619 16.4491 114.096 15.9707 114.096 15.3553C114.096 14.74 113.619 14.2616 113.006 14.2616ZM15.967 14.6716C15.5582 14.6716 15.2856 15.0135 15.2856 15.3553C15.2856 15.7656 15.6263 16.0391 15.967 16.0391C16.3759 16.0391 16.6485 15.6972 16.6485 15.3553C16.6485 15.0135 16.3078 14.6716 15.967 14.6716ZM38.7957 14.6716C38.3868 14.6716 38.1142 15.0135 38.1142 15.3553C38.1142 15.7656 38.455 16.0391 38.7957 16.0391C39.2046 16.0391 39.4771 15.6972 39.4771 15.3553C39.4771 15.0135 39.2046 14.6716 38.7957 14.6716ZM13.1041 15.9016C12.4908 15.9016 12.0141 16.3813 12.0141 16.9966C12.0141 17.612 12.4908 18.0904 13.1041 18.0904C13.7174 18.0904 14.1955 17.612 14.1955 16.9966C14.1955 16.4496 13.7174 15.9016 13.1041 15.9016ZM24.5531 15.9016C23.9398 15.9016 23.463 16.3813 23.463 16.9966C23.463 17.612 23.9398 18.0904 24.5531 18.0904C25.1664 18.0904 25.6431 17.612 25.6431 16.9966C25.6431 16.4496 25.1664 15.9016 24.5531 15.9016ZM30.2097 15.9016C29.5964 15.9016 29.1183 16.3813 29.1183 16.9966C29.1183 17.612 29.5964 18.0904 30.2097 18.0904C30.823 18.0904 31.2997 17.612 31.2997 16.9966C31.3679 16.4496 30.823 15.9016 30.2097 15.9016ZM41.6573 15.9016C41.0439 15.9016 40.5672 16.3813 40.5672 16.9966C40.5672 17.612 41.0439 18.0904 41.6573 18.0904C42.2706 18.0904 42.7473 17.612 42.7473 16.9966C42.7473 16.4496 42.2706 15.9016 41.6573 15.9016ZM63.1909 15.9016C62.5776 15.9016 62.1008 16.3813 62.1008 16.9966C62.1008 17.612 62.5776 18.0904 63.1909 18.0904C63.8042 18.0904 64.2823 17.612 64.2823 16.9966C64.3504 16.4496 63.8042 15.9016 63.1909 15.9016ZM80.3643 15.9016C79.751 15.9016 79.2742 16.3813 79.2742 16.9966C79.2742 17.612 79.751 18.0904 80.3643 18.0904C80.9776 18.0904 81.4543 17.612 81.4543 16.9966C81.4543 16.4496 80.9776 15.9016 80.3643 15.9016ZM93.039 15.9016C92.4257 15.9016 91.949 16.3813 91.949 16.9966C91.949 17.612 92.4257 18.0904 93.039 18.0904C93.6523 18.0904 94.1291 17.612 94.1291 16.9966C94.1291 16.4496 93.6523 15.9016 93.039 15.9016ZM98.6956 15.9016C98.0823 15.9016 97.6042 16.3813 97.6042 16.9966C97.6042 17.612 98.0823 18.0904 98.6956 18.0904C99.3089 18.0904 99.7857 17.612 99.7857 16.9966C99.8538 16.4496 99.3089 15.9016 98.6956 15.9016ZM110.143 15.9016C109.53 15.9016 109.053 16.3813 109.053 16.9966C109.053 17.612 109.53 18.0904 110.143 18.0904C110.757 18.0904 111.233 17.612 111.233 16.9966C111.233 16.4496 110.757 15.9016 110.143 15.9016ZM115.868 15.9016C115.254 15.9016 114.778 16.3813 114.778 16.9966C114.778 17.612 115.254 18.0904 115.868 18.0904C116.481 18.0904 116.958 17.612 116.958 16.9966C116.958 16.4496 116.481 15.9016 115.868 15.9016ZM18.8286 16.3129C18.4197 16.3129 18.1472 16.6548 18.1472 16.9966C18.1472 17.4069 18.4879 17.6804 18.8286 17.6804C19.2375 17.6804 19.5101 17.3385 19.5101 16.9966C19.5101 16.6548 19.1693 16.3129 18.8286 16.3129ZM35.9328 16.3129C35.5239 16.3129 35.2513 16.6548 35.2513 16.9966C35.2513 17.4069 35.5921 17.6804 35.9328 17.6804C36.3417 17.6804 36.6142 17.3385 36.6142 16.9966C36.6142 16.6548 36.3417 16.3129 35.9328 16.3129ZM104.419 16.3129C104.01 16.3129 103.737 16.6548 103.737 16.9966C103.737 17.4069 104.078 17.6804 104.419 17.6804C104.828 17.6804 105.1 17.3385 105.1 16.9966C105.1 16.6548 104.828 16.3129 104.419 16.3129ZM68.9153 16.381C68.5065 16.381 68.2339 16.7229 68.2339 17.0647C68.2339 17.4066 68.5746 17.7485 68.9153 17.7485C69.3242 17.7485 69.5968 17.4066 69.5968 17.0647C69.5968 16.6545 69.2561 16.381 68.9153 16.381ZM74.6398 16.381C74.2309 16.381 73.9584 16.7229 73.9584 17.0647C73.9584 17.4066 74.2309 17.7485 74.6398 17.7485C75.0487 17.7485 75.3213 17.4066 75.3213 17.0647C75.3213 16.6545 74.9805 16.381 74.6398 16.381ZM10.2426 17.5428C9.62927 17.5428 9.15252 18.0212 9.15252 18.6366C9.15252 19.252 9.62927 19.7317 10.2426 19.7317C10.8559 19.7317 11.3326 19.252 11.3326 18.6366C11.3326 18.0212 10.8559 17.5428 10.2426 17.5428ZM15.967 17.5428C15.3537 17.5428 14.877 18.0212 14.877 18.6366C14.877 19.252 15.3537 19.7317 15.967 19.7317C16.5804 19.7317 17.0571 19.252 17.0571 18.6366C17.0571 18.0212 16.5804 17.5428 15.967 17.5428ZM21.6915 17.5428C21.0782 17.5428 20.6001 18.0212 20.6001 18.6366C20.6001 19.252 21.0782 19.7317 21.6915 19.7317C22.3048 19.7317 22.7816 19.252 22.7816 18.6366C22.7816 18.0212 22.3048 17.5428 21.6915 17.5428ZM33.0712 17.5428C32.4579 17.5428 31.9812 18.0212 31.9812 18.6366C31.9812 19.252 32.4579 19.7317 33.0712 19.7317C33.6845 19.7317 34.1613 19.252 34.1613 18.6366C34.1613 18.0212 33.6845 17.5428 33.0712 17.5428ZM38.7957 17.5428C38.1824 17.5428 37.7056 18.0212 37.7056 18.6366C37.7056 19.252 38.1824 19.7317 38.7957 19.7317C39.409 19.7317 39.8857 19.252 39.8857 18.6366C39.8857 18.0212 39.409 17.5428 38.7957 17.5428ZM44.5202 17.5428C43.9069 17.5428 43.4288 18.0212 43.4288 18.6366C43.4288 19.252 43.9069 19.7317 44.5202 19.7317C45.1335 19.7317 45.6102 19.252 45.6102 18.6366C45.6102 18.0212 45.1335 17.5428 44.5202 17.5428V17.5428ZM60.3972 17.5428C59.7839 17.5428 59.3071 18.0212 59.3071 18.6366C59.3071 19.252 59.7839 19.7317 60.3972 19.7317C61.0105 19.7317 61.4872 19.252 61.4872 18.6366C61.4872 18.0896 61.0105 17.5428 60.3972 17.5428ZM66.0538 17.5428C65.4405 17.5428 64.9637 18.0212 64.9637 18.6366C64.9637 19.252 65.4405 19.7317 66.0538 19.7317C66.6671 19.7317 67.1438 19.252 67.1438 18.6366C67.212 18.0896 66.6671 17.5428 66.0538 17.5428ZM71.7782 17.5428C71.1649 17.5428 70.6869 18.0212 70.6869 18.6366C70.6869 19.252 71.1649 19.7317 71.7782 19.7317C72.3915 19.7317 72.8683 19.252 72.8683 18.6366C72.8683 18.0896 72.3915 17.5428 71.7782 17.5428ZM77.5014 17.5428C76.8881 17.5428 76.4113 18.0212 76.4113 18.6366C76.4113 19.252 76.8881 19.7317 77.5014 19.7317C78.1147 19.7317 78.5928 19.252 78.5928 18.6366C78.5928 18.0896 78.1147 17.5428 77.5014 17.5428ZM95.9006 17.5428C95.2873 17.5428 94.8105 18.0212 94.8105 18.6366C94.8105 19.252 95.2873 19.7317 95.9006 19.7317C96.5139 19.7317 96.992 19.252 96.992 18.6366C96.992 18.0896 96.5139 17.5428 95.9006 17.5428ZM101.557 17.5428C100.944 17.5428 100.467 18.0212 100.467 18.6366C100.467 19.252 100.944 19.7317 101.557 19.7317C102.17 19.7317 102.647 19.252 102.647 18.6366C102.715 18.0896 102.17 17.5428 101.557 17.5428ZM107.282 17.5428C106.668 17.5428 106.192 18.0212 106.192 18.6366C106.192 19.252 106.668 19.7317 107.282 19.7317C107.895 19.7317 108.372 19.252 108.372 18.6366C108.372 18.0896 107.895 17.5428 107.282 17.5428ZM113.006 17.5428C112.393 17.5428 111.915 18.0212 111.915 18.6366C111.915 19.252 112.393 19.7317 113.006 19.7317C113.619 19.7317 114.096 19.252 114.096 18.6366C114.096 18.0896 113.619 17.5428 113.006 17.5428ZM27.3468 17.6109C26.7335 17.6109 26.2567 18.0906 26.2567 18.706C26.2567 19.3214 26.7335 19.7998 27.3468 19.7998C27.9601 19.7998 28.4368 19.3214 28.4368 18.706C28.4368 18.0906 27.9601 17.6109 27.3468 17.6109ZM83.2258 18.0223C82.8851 18.0223 82.5444 18.3641 82.5444 18.706C82.5444 19.0479 82.817 19.3898 83.2258 19.3898C83.6347 19.3898 83.9073 19.0479 83.9073 18.706C83.9073 18.2958 83.5666 18.0223 83.2258 18.0223ZM13.1041 19.2522C12.4908 19.2522 12.0141 19.7306 12.0141 20.346C12.0141 20.9614 12.4908 21.4411 13.1041 21.4411C13.7174 21.4411 14.1955 20.9614 14.1955 20.346C14.1955 19.7306 13.7174 19.2522 13.1041 19.2522ZM18.8286 19.2522C18.2153 19.2522 17.7385 19.7306 17.7385 20.346C17.7385 20.9614 18.2153 21.4411 18.8286 21.4411C19.4419 21.4411 19.9187 20.9614 19.9187 20.346C19.9187 19.7306 19.4419 19.2522 18.8286 19.2522ZM24.5531 19.2522C23.9398 19.2522 23.463 19.7306 23.463 20.346C23.463 20.9614 23.9398 21.4411 24.5531 21.4411C25.1664 21.4411 25.6431 20.9614 25.6431 20.346C25.6431 19.7306 25.1664 19.2522 24.5531 19.2522ZM30.2097 19.2522C29.5964 19.2522 29.1183 19.7306 29.1183 20.346C29.1183 20.9614 29.5964 21.4411 30.2097 21.4411C30.823 21.4411 31.2997 20.9614 31.2997 20.346C31.3679 19.7306 30.823 19.2522 30.2097 19.2522ZM35.9328 19.2522C35.3195 19.2522 34.8427 19.7306 34.8427 20.346C34.8427 20.9614 35.3195 21.4411 35.9328 21.4411C36.5461 21.4411 37.0242 20.9614 37.0242 20.346C37.0242 19.7306 36.5461 19.2522 35.9328 19.2522ZM41.6573 19.2522C41.0439 19.2522 40.5672 19.7306 40.5672 20.346C40.5672 20.9614 41.0439 21.4411 41.6573 21.4411C42.2706 21.4411 42.7473 20.9614 42.7473 20.346C42.7473 19.7306 42.2706 19.2522 41.6573 19.2522ZM63.1909 19.2522C62.5776 19.2522 62.1008 19.7306 62.1008 20.346C62.1008 20.9614 62.5776 21.4411 63.1909 21.4411C63.8042 21.4411 64.2823 20.9614 64.2823 20.346C64.3504 19.7306 63.8042 19.2522 63.1909 19.2522ZM68.9153 19.2522C68.302 19.2522 67.8253 19.7306 67.8253 20.346C67.8253 20.9614 68.302 21.4411 68.9153 21.4411C69.5287 21.4411 70.0054 20.9614 70.0054 20.346C70.0735 19.7306 69.5287 19.2522 68.9153 19.2522ZM74.6398 19.2522C74.0265 19.2522 73.5498 19.7306 73.5498 20.346C73.5498 20.9614 74.0265 21.4411 74.6398 21.4411C75.2531 21.4411 75.7299 20.9614 75.7299 20.346C75.7299 19.7306 75.2531 19.2522 74.6398 19.2522ZM80.3643 19.2522C79.751 19.2522 79.2742 19.7306 79.2742 20.346C79.2061 20.9614 79.751 21.4411 80.3643 21.4411C80.9776 21.4411 81.4543 20.9614 81.4543 20.346C81.4543 19.7306 80.9776 19.2522 80.3643 19.2522ZM93.039 19.2522C92.4257 19.2522 91.949 19.7306 91.949 20.346C91.949 20.9614 92.4257 21.4411 93.039 21.4411C93.6523 21.4411 94.1291 20.9614 94.1291 20.346C94.1291 19.7306 93.6523 19.2522 93.039 19.2522ZM98.6956 19.2522C98.0823 19.2522 97.6042 19.7306 97.6042 20.346C97.6042 20.9614 98.0823 21.4411 98.6956 21.4411C99.3089 21.4411 99.7857 20.9614 99.7857 20.346C99.8538 19.7306 99.3089 19.2522 98.6956 19.2522ZM104.419 19.2522C103.805 19.2522 103.329 19.7306 103.329 20.346C103.329 20.9614 103.805 21.4411 104.419 21.4411C105.032 21.4411 105.51 20.9614 105.51 20.346C105.51 19.7306 105.032 19.2522 104.419 19.2522ZM110.143 19.2522C109.53 19.2522 109.053 19.7306 109.053 20.346C109.053 20.9614 109.53 21.4411 110.143 21.4411C110.757 21.4411 111.233 20.9614 111.233 20.346C111.233 19.7306 110.757 19.2522 110.143 19.2522ZM15.967 20.8936C15.3537 20.8936 14.877 21.3719 14.877 21.9873C14.877 22.6027 15.3537 23.0811 15.967 23.0811C16.5804 23.0811 17.0571 22.6027 17.0571 21.9873C17.0571 21.3719 16.5804 20.8936 15.967 20.8936ZM21.6915 20.8936C21.0782 20.8936 20.6001 21.3719 20.6001 21.9873C20.6001 22.6027 21.0782 23.0811 21.6915 23.0811C22.3048 23.0811 22.7816 22.6027 22.7816 21.9873C22.7816 21.3719 22.3048 20.8936 21.6915 20.8936ZM33.0712 20.8936C32.4579 20.8936 31.9812 21.3719 31.9812 21.9873C31.9812 22.6027 32.4579 23.0811 33.0712 23.0811C33.6845 23.0811 34.1613 22.6027 34.1613 21.9873C34.2294 21.3719 33.6845 20.8936 33.0712 20.8936ZM38.7957 20.8936C38.1824 20.8936 37.7056 21.3719 37.7056 21.9873C37.7056 22.6027 38.1824 23.0811 38.7957 23.0811C39.409 23.0811 39.8857 22.6027 39.8857 21.9873C39.8857 21.3719 39.409 20.8936 38.7957 20.8936ZM60.3972 20.8936C59.7839 20.8936 59.3071 21.3719 59.3071 21.9873C59.3071 22.6027 59.7839 23.0811 60.3972 23.0811C61.0105 23.0811 61.4872 22.6027 61.4872 21.9873C61.4872 21.3719 61.0105 20.8936 60.3972 20.8936ZM66.0538 20.8936C65.4405 20.8936 64.9637 21.3719 64.9637 21.9873C64.9637 22.6027 65.4405 23.0811 66.0538 23.0811C66.6671 23.0811 67.1438 22.6027 67.1438 21.9873C67.212 21.3719 66.6671 20.8936 66.0538 20.8936V20.8936ZM71.7782 20.8936C71.1649 20.8936 70.6869 21.3719 70.6869 21.9873C70.6869 22.6027 71.1649 23.0811 71.7782 23.0811C72.3915 23.0811 72.8683 22.6027 72.8683 21.9873C72.8683 21.3719 72.3915 20.8936 71.7782 20.8936ZM77.5014 20.8936C76.8881 20.8936 76.4113 21.3719 76.4113 21.9873C76.4113 22.6027 76.8881 23.0811 77.5014 23.0811C78.1147 23.0811 78.5928 22.6027 78.5928 21.9873C78.5928 21.3719 78.1147 20.8936 77.5014 20.8936ZM95.9006 20.8936C95.2873 20.8936 94.8105 21.3719 94.8105 21.9873C94.8105 22.6027 95.2873 23.0811 95.9006 23.0811C96.5139 23.0811 96.992 22.6027 96.992 21.9873C96.992 21.3719 96.5139 20.8936 95.9006 20.8936ZM101.557 20.8936C100.944 20.8936 100.467 21.3719 100.467 21.9873C100.467 22.6027 100.944 23.0811 101.557 23.0811C102.17 23.0811 102.647 22.6027 102.647 21.9873C102.715 21.3719 102.17 20.8936 101.557 20.8936ZM107.282 20.8936C106.668 20.8936 106.192 21.3719 106.192 21.9873C106.192 22.6027 106.668 23.0811 107.282 23.0811C107.895 23.0811 108.372 22.6027 108.372 21.9873C108.372 21.3719 107.895 20.8936 107.282 20.8936ZM10.2426 21.3035C9.8337 21.3035 9.56112 21.6454 9.56112 21.9873C9.56112 22.3976 9.90185 22.6711 10.2426 22.6711C10.6514 22.6711 10.924 22.3292 10.924 21.9873C10.924 21.5771 10.5833 21.3035 10.2426 21.3035ZM44.5202 21.3035C44.1113 21.3035 43.8387 21.6454 43.8387 21.9873C43.8387 22.3976 44.1113 22.6711 44.5202 22.6711C44.929 22.6711 45.2016 22.3292 45.2016 21.9873C45.2016 21.5771 44.8609 21.3035 44.5202 21.3035V21.3035ZM113.006 21.3035C112.597 21.3035 112.325 21.6454 112.325 21.9873C112.325 22.3976 112.597 22.6711 113.006 22.6711C113.415 22.6711 113.688 22.3292 113.688 21.9873C113.688 21.5771 113.347 21.3035 113.006 21.3035ZM13.1041 22.5349C12.4908 22.5349 12.0141 23.0132 12.0141 23.6286C12.0141 24.244 12.4908 24.7224 13.1041 24.7224C13.7174 24.7224 14.1955 24.244 14.1955 23.6286C14.1955 23.0132 13.7174 22.5349 13.1041 22.5349ZM18.8286 22.5349C18.2153 22.5349 17.7385 23.0132 17.7385 23.6286C17.7385 24.244 18.2153 24.7224 18.8286 24.7224C19.4419 24.7224 19.9187 24.244 19.9187 23.6286C19.9187 23.0132 19.4419 22.5349 18.8286 22.5349ZM35.9328 22.5349C35.3195 22.5349 34.8427 23.0132 34.8427 23.6286C34.8427 24.244 35.3195 24.7224 35.9328 24.7224C36.5461 24.7224 37.0242 24.244 37.0242 23.6286C37.0242 23.0132 36.5461 22.5349 35.9328 22.5349ZM41.6573 22.5349C41.0439 22.5349 40.5672 23.0132 40.5672 23.6286C40.5672 24.244 41.0439 24.7224 41.6573 24.7224C42.2706 24.7224 42.7473 24.244 42.7473 23.6286C42.7473 23.0132 42.2706 22.5349 41.6573 22.5349ZM63.1909 22.5349C62.5776 22.5349 62.1008 23.0132 62.1008 23.6286C62.1008 24.244 62.5776 24.7224 63.1909 24.7224C63.8042 24.7224 64.2823 24.244 64.2823 23.6286C64.2823 23.0132 63.8042 22.5349 63.1909 22.5349ZM93.039 22.5349C92.4257 22.5349 91.949 23.0132 91.949 23.6286C91.949 24.244 92.4257 24.7224 93.039 24.7224C93.6523 24.7224 94.1291 24.244 94.1291 23.6286C94.1291 23.0132 93.6523 22.5349 93.039 22.5349ZM98.6956 22.5349C98.0823 22.5349 97.6042 23.0132 97.6042 23.6286C97.6042 24.244 98.0823 24.7224 98.6956 24.7224C99.3089 24.7224 99.7857 24.244 99.7857 23.6286C99.7857 23.0132 99.3089 22.5349 98.6956 22.5349ZM68.9153 22.603C68.302 22.603 67.8253 23.0813 67.8253 23.6967C67.8253 24.3121 68.302 24.7905 68.9153 24.7905C69.5287 24.7905 70.0054 24.3121 70.0054 23.6967C70.0054 23.0813 69.5287 22.603 68.9153 22.603ZM74.6398 22.603C74.0265 22.603 73.5498 23.0813 73.5498 23.6967C73.5498 24.3121 74.0265 24.7905 74.6398 24.7905C75.2531 24.7905 75.7299 24.3121 75.7299 23.6967C75.7299 23.0813 75.2531 22.603 74.6398 22.603ZM104.419 22.603C103.805 22.603 103.329 23.0813 103.329 23.6967C103.329 24.3121 103.805 24.7905 104.419 24.7905C105.032 24.7905 105.51 24.3121 105.51 23.6967C105.51 23.0813 105.032 22.603 104.419 22.603ZM24.5531 22.9448C24.1442 22.9448 23.8716 23.2867 23.8716 23.6286C23.8035 24.0389 24.1442 24.3124 24.5531 24.3124C24.9619 24.3124 25.2345 23.9705 25.2345 23.6286C25.2345 23.2183 24.8938 22.9448 24.5531 22.9448ZM30.2097 22.9448C29.8008 22.9448 29.5282 23.2867 29.5282 23.6286C29.5282 24.0389 29.8689 24.3124 30.2097 24.3124C30.6185 24.3124 30.8911 23.9705 30.8911 23.6286C30.8911 23.2183 30.5504 22.9448 30.2097 22.9448ZM110.143 22.9448C109.734 22.9448 109.462 23.2867 109.462 23.6286C109.462 24.0389 109.734 24.3124 110.143 24.3124C110.552 24.3124 110.825 23.9705 110.825 23.6286C110.825 23.2183 110.484 22.9448 110.143 22.9448ZM15.967 24.1761C15.3537 24.1761 14.877 24.6545 14.877 25.2699C14.877 25.8853 15.3537 26.3637 15.967 26.3637C16.5804 26.3637 17.0571 25.8853 17.0571 25.2699C17.0571 24.6545 16.5804 24.1761 15.967 24.1761ZM21.6915 24.1761C21.0782 24.1761 20.6001 24.6545 20.6001 25.2699C20.6001 25.8853 21.0782 26.3637 21.6915 26.3637C22.3048 26.3637 22.7816 25.8853 22.7816 25.2699C22.7816 24.6545 22.3048 24.1761 21.6915 24.1761ZM33.0712 24.1761C32.4579 24.1761 31.9812 24.6545 31.9812 25.2699C31.9812 25.8853 32.4579 26.3637 33.0712 26.3637C33.6845 26.3637 34.1613 25.8853 34.1613 25.2699C34.2294 24.6545 33.6845 24.1761 33.0712 24.1761ZM38.7957 24.1761C38.1824 24.1761 37.7056 24.6545 37.7056 25.2699C37.7056 25.8853 38.1824 26.3637 38.7957 26.3637C39.409 26.3637 39.8857 25.8853 39.8857 25.2699C39.8857 24.6545 39.409 24.1761 38.7957 24.1761ZM60.3972 24.1761C59.7839 24.1761 59.3071 24.6545 59.3071 25.2699C59.3071 25.8853 59.7839 26.3637 60.3972 26.3637C61.0105 26.3637 61.4872 25.8853 61.4872 25.2699C61.4872 24.6545 61.0105 24.1761 60.3972 24.1761ZM66.0538 24.1761C65.4405 24.1761 64.9637 24.6545 64.9637 25.2699C64.9637 25.8853 65.4405 26.3637 66.0538 26.3637C66.6671 26.3637 67.1438 25.8853 67.1438 25.2699C67.212 24.6545 66.6671 24.1761 66.0538 24.1761ZM95.9006 24.1761C95.2873 24.1761 94.8105 24.6545 94.8105 25.2699C94.8105 25.8853 95.2873 26.3637 95.9006 26.3637C96.5139 26.3637 96.992 25.8853 96.992 25.2699C96.992 24.6545 96.5139 24.1761 95.9006 24.1761ZM107.282 24.5861C106.873 24.5861 106.6 24.928 106.6 25.2699C106.6 25.6802 106.941 25.9537 107.282 25.9537C107.691 25.9537 107.963 25.6118 107.963 25.2699C107.963 24.928 107.691 24.5861 107.282 24.5861ZM71.7782 24.6542C71.3694 24.6542 71.0968 24.9961 71.0968 25.338C71.0968 25.6799 71.4375 26.0218 71.7782 26.0218C72.1871 26.0218 72.4597 25.6799 72.4597 25.338C72.4597 24.9961 72.119 24.6542 71.7782 24.6542ZM101.557 24.6542C101.148 24.6542 100.876 24.9961 100.876 25.338C100.876 25.6799 101.216 26.0218 101.557 26.0218C101.966 26.0218 102.239 25.6799 102.239 25.338C102.239 24.9961 101.898 24.6542 101.557 24.6542ZM13.1041 25.8161C12.4908 25.8161 12.0141 26.2958 12.0141 26.9112C12.0141 27.5266 12.4908 28.005 13.1041 28.005C13.7174 28.005 14.1955 27.5266 14.1955 26.9112C14.1955 26.3642 13.7174 25.8161 13.1041 25.8161ZM18.8286 25.8161C18.2153 25.8161 17.7385 26.2958 17.7385 26.9112C17.7385 27.5266 18.2153 28.005 18.8286 28.005C19.4419 28.005 19.9187 27.5266 19.9187 26.9112C19.9187 26.3642 19.4419 25.8161 18.8286 25.8161ZM35.9328 25.8161C35.3195 25.8161 34.8427 26.2958 34.8427 26.9112C34.8427 27.5266 35.3195 28.005 35.9328 28.005C36.5461 28.005 37.0242 27.5266 37.0242 26.9112C37.0242 26.3642 36.5461 25.8161 35.9328 25.8161ZM41.6573 25.8161C41.0439 25.8161 40.5672 26.2958 40.5672 26.9112C40.5672 27.5266 41.0439 28.005 41.6573 28.005C42.2706 28.005 42.7473 27.5266 42.7473 26.9112C42.7473 26.3642 42.2706 25.8161 41.6573 25.8161ZM63.1909 25.8161C62.5776 25.8161 62.1008 26.2958 62.1008 26.9112C62.1008 27.5266 62.5776 28.005 63.1909 28.005C63.8042 28.005 64.2823 27.5266 64.2823 26.9112C64.3504 26.3642 63.8042 25.8161 63.1909 25.8161ZM93.039 25.8161C92.4257 25.8161 91.949 26.2958 91.949 26.9112C91.949 27.5266 92.4257 28.005 93.039 28.005C93.6523 28.005 94.1291 27.5266 94.1291 26.9112C94.1291 26.3642 93.6523 25.8161 93.039 25.8161ZM98.6956 25.8161C98.0823 25.8161 97.6042 26.2958 97.6042 26.9112C97.6042 27.5266 98.0823 28.005 98.6956 28.005C99.3089 28.005 99.7857 27.5266 99.7857 26.9112C99.8538 26.3642 99.3089 25.8161 98.6956 25.8161ZM15.967 27.5255C15.3537 27.5255 14.877 28.0052 14.877 28.6206C14.877 29.236 15.3537 29.7144 15.967 29.7144C16.5804 29.7144 17.0571 29.236 17.0571 28.6206C17.0571 28.0052 16.5804 27.5255 15.967 27.5255ZM21.6915 27.5255C21.0782 27.5255 20.6001 28.0052 20.6001 28.6206C20.532 29.236 21.0782 29.7144 21.6915 29.7144C22.3048 29.7144 22.7816 29.236 22.7816 28.6206C22.7816 28.0052 22.3048 27.5255 21.6915 27.5255ZM33.0712 27.5255C32.4579 27.5255 31.9812 28.0052 31.9812 28.6206C31.9812 29.236 32.4579 29.7144 33.0712 29.7144C33.6845 29.7144 34.1613 29.236 34.1613 28.6206C34.1613 28.0052 33.6845 27.5255 33.0712 27.5255ZM38.7957 27.5255C38.1824 27.5255 37.7056 28.0052 37.7056 28.6206C37.7056 29.236 38.1824 29.7144 38.7957 29.7144C39.409 29.7144 39.8857 29.236 39.8857 28.6206C39.8857 28.0052 39.409 27.5255 38.7957 27.5255ZM60.3972 27.5255C59.7839 27.5255 59.3071 28.0052 59.3071 28.6206C59.3071 29.236 59.7839 29.7144 60.3972 29.7144C61.0105 29.7144 61.4872 29.236 61.4872 28.6206C61.4872 28.0052 61.0105 27.5255 60.3972 27.5255ZM66.0538 27.5255C65.4405 27.5255 64.9637 28.0052 64.9637 28.6206C64.9637 29.236 65.4405 29.7144 66.0538 29.7144C66.6671 29.7144 67.1438 29.236 67.1438 28.6206C67.212 28.0052 66.6671 27.5255 66.0538 27.5255ZM95.9006 27.5255C95.2873 27.5255 94.8105 28.0052 94.8105 28.6206C94.8105 29.236 95.2873 29.7144 95.9006 29.7144C96.5139 29.7144 96.992 29.236 96.992 28.6206C96.992 28.0052 96.5139 27.5255 95.9006 27.5255ZM18.8286 29.1668C18.2153 29.1668 17.7385 29.6452 17.7385 30.2606C17.7385 30.876 18.2153 31.3557 18.8286 31.3557C19.4419 31.3557 19.9187 30.876 19.9187 30.2606C19.9187 29.6452 19.4419 29.1668 18.8286 29.1668ZM35.9328 29.1668C35.3195 29.1668 34.8427 29.6452 34.8427 30.2606C34.8427 30.876 35.3195 31.3557 35.9328 31.3557C36.5461 31.3557 37.0242 30.876 37.0242 30.2606C37.0242 29.6452 36.5461 29.1668 35.9328 29.1668ZM63.1909 29.1668C62.5776 29.1668 62.1008 29.6452 62.1008 30.2606C62.1008 30.876 62.5776 31.3557 63.1909 31.3557C63.8042 31.3557 64.2823 30.876 64.2823 30.2606C64.3504 29.6452 63.8042 29.1668 63.1909 29.1668ZM93.039 29.1668C92.4257 29.1668 91.949 29.6452 91.949 30.2606C91.949 30.876 92.4257 31.3557 93.039 31.3557C93.6523 31.3557 94.1291 30.876 94.1291 30.2606C94.1291 29.6452 93.6523 29.1668 93.039 29.1668ZM98.6956 29.1668C98.0823 29.1668 97.6042 29.6452 97.6042 30.2606C97.6042 30.876 98.0823 31.3557 98.6956 31.3557C99.3089 31.3557 99.7857 30.876 99.7857 30.2606C99.8538 29.6452 99.3089 29.1668 98.6956 29.1668ZM13.1041 29.5768C12.6953 29.5768 12.4227 29.9187 12.4227 30.2606C12.4227 30.6708 12.6953 30.9443 13.1041 30.9443C13.513 30.9443 13.7856 30.6024 13.7856 30.2606C13.7856 29.8503 13.4449 29.5768 13.1041 29.5768ZM41.6573 29.5768C41.3165 29.5768 40.9758 29.9187 40.9758 30.2606C40.9758 30.6708 41.2484 30.9443 41.6573 30.9443C42.0661 30.9443 42.3387 30.6024 42.3387 30.2606C42.3387 29.8503 41.998 29.5768 41.6573 29.5768ZM15.967 30.8081C15.3537 30.8081 14.877 31.2865 14.877 31.9019C14.877 32.5172 15.3537 32.9956 15.967 32.9956C16.5804 32.9956 17.0571 32.5172 17.0571 31.9019C17.0571 31.2865 16.5804 30.8081 15.967 30.8081ZM38.7957 30.8081C38.1824 30.8081 37.7056 31.2865 37.7056 31.9019C37.7056 32.5172 38.1824 32.9956 38.7957 32.9956C39.409 32.9956 39.8857 32.5172 39.8857 31.9019C39.8857 31.2865 39.409 30.8081 38.7957 30.8081V30.8081ZM60.3972 30.8081C59.7839 30.8081 59.3071 31.2865 59.3071 31.9019C59.3071 32.5172 59.7839 32.9956 60.3972 32.9956C61.0105 32.9956 61.4872 32.5172 61.4872 31.9019C61.4872 31.2865 61.0105 30.8081 60.3972 30.8081ZM66.0538 30.8081C65.4405 30.8081 64.9637 31.2865 64.9637 31.9019C64.9637 32.5172 65.4405 32.9956 66.0538 32.9956C66.6671 32.9956 67.1438 32.5172 67.1438 31.9019C67.212 31.2865 66.6671 30.8081 66.0538 30.8081V30.8081ZM95.9006 30.8081C95.2873 30.8081 94.8105 31.2865 94.8105 31.9019C94.8105 32.5172 95.2873 32.9956 95.9006 32.9956C96.5139 32.9956 96.992 32.5172 96.992 31.9019C96.992 31.2865 96.5139 30.8081 95.9006 30.8081ZM18.8286 32.5175C18.2153 32.5175 17.7385 32.9959 17.7385 33.6113C17.6704 34.1583 18.2153 34.705 18.8286 34.705C19.4419 34.705 19.9187 34.2267 19.9187 33.6113C19.9187 32.9959 19.4419 32.5175 18.8286 32.5175ZM35.9328 32.5175C35.3195 32.5175 34.8427 32.9959 34.8427 33.6113C34.8427 34.1583 35.3195 34.705 35.9328 34.705C36.5461 34.705 37.0242 34.2267 37.0242 33.6113C37.0242 32.9959 36.5461 32.5175 35.9328 32.5175ZM63.1909 32.5175C62.5776 32.5175 62.1008 32.9959 62.1008 33.6113C62.1008 34.1583 62.5776 34.705 63.1909 34.705C63.8042 34.705 64.2823 34.2267 64.2823 33.6113C64.2823 32.9959 63.8042 32.5175 63.1909 32.5175ZM93.039 32.5175C92.4257 32.5175 91.949 32.9959 91.949 33.6113C91.8808 34.1583 92.4257 34.705 93.039 34.705C93.6523 34.705 94.1291 34.2267 94.1291 33.6113C94.1291 32.9959 93.6523 32.5175 93.039 32.5175ZM98.6956 32.5175C98.0823 32.5175 97.6042 32.9959 97.6042 33.6113C97.6042 34.1583 98.0823 34.705 98.6956 34.705C99.3089 34.705 99.7857 34.2267 99.7857 33.6113C99.7857 32.9959 99.3089 32.5175 98.6956 32.5175ZM15.967 34.5688C15.5582 34.5688 15.2856 34.9107 15.2856 35.2526C15.2856 35.5944 15.5582 35.9363 15.967 35.9363C16.3759 35.9363 16.6485 35.5944 16.6485 35.2526C16.6485 34.8423 16.3078 34.5688 15.967 34.5688ZM38.7957 34.5688C38.3868 34.5688 38.1142 34.9107 38.1142 35.2526C38.1142 35.5944 38.3868 35.9363 38.7957 35.9363C39.2046 35.9363 39.4771 35.5944 39.4771 35.2526C39.4771 34.8423 39.1364 34.5688 38.7957 34.5688ZM60.3972 34.5688C59.9883 34.5688 59.7157 34.9107 59.7157 35.2526C59.6476 35.5944 59.9883 35.9363 60.3972 35.9363C60.8061 35.9363 61.0786 35.5944 61.0786 35.2526C61.0786 34.8423 60.7379 34.5688 60.3972 34.5688ZM66.0538 34.5688C65.6449 34.5688 65.3723 34.9107 65.3723 35.2526C65.3723 35.5944 65.7131 35.9363 66.0538 35.9363C66.4627 35.9363 66.7352 35.5944 66.7352 35.2526C66.7352 34.8423 66.3945 34.5688 66.0538 34.5688ZM95.9006 34.5688C95.4917 34.5688 95.2191 34.9107 95.2191 35.2526C95.151 35.5944 95.4917 35.9363 95.9006 35.9363C96.3095 35.9363 96.582 35.5944 96.582 35.2526C96.582 34.8423 96.2413 34.5688 95.9006 34.5688Z" fill="#FAFAFA"/>
</g>
</svg>
