<svg width="502" height="144" viewBox="0 0 502 144" fill="none" xmlns="http://www.w3.org/2000/svg">
<path d="M286.625 118V68H297.125V56.5H286.625C286.625 49.375 288.5 47.125 296.75 47.125V34C279.25 34 270.625 41.5 270.625 56.5H261.5V68H270.625V118H286.625ZM336.563 94.625C336.438 101.875 330.188 108 321.813 108C316.688 108 313.938 105.75 313.938 101.125C313.938 95.875 316.938 93.25 326.188 91.5C332.188 90.375 335.063 89.5 336.688 87.875L336.563 94.625ZM352.938 118V79.125C352.938 63.625 346.188 54.875 326.688 54.875C306.938 54.875 299.938 63.75 299.688 76.5H314.813C315.563 71 318.563 67.375 325.938 67.375C332.313 67.375 336.313 69.75 336.313 73.75C336.313 78 334.063 79.625 325.938 80.75C309.563 83 297.688 85 297.688 102.75C297.688 112.75 304.188 119.625 318.188 119.625C326.438 119.625 332.938 116.75 336.813 112.5C336.938 114.375 337.313 116.5 337.813 118H352.938ZM417.104 118V75.375C417.104 62 408.479 54.875 396.729 54.875C386.854 54.875 380.604 58.625 376.854 65.5V56.5H361.354V118H377.604V82.75C377.604 73.375 381.729 68.625 390.229 68.625C397.979 68.625 400.729 71.25 400.729 80.75V118H417.104ZM478.096 75.125C477.221 61.875 469.221 54.875 451.471 54.875C432.721 54.875 425.596 62.75 425.596 73.125C425.596 78.625 427.596 83.375 433.346 87C437.721 89.75 443.471 91.5 453.846 94C459.096 95.25 463.721 96.625 463.721 101C463.721 105.625 458.596 107.375 452.846 107.375C444.971 107.375 440.096 104 440.096 98.25H423.346C423.596 110.75 434.096 119.625 452.971 119.625C470.471 119.625 479.846 112 479.846 99.25C479.846 91.25 476.221 87 469.721 84.375C464.971 82.5 458.346 81.125 451.346 79.125C444.721 77.25 441.346 75.75 441.346 72.125C441.346 68.5 444.846 67 450.971 67C458.346 67 461.596 69.125 462.471 75.125H478.096Z" fill="#FAFAFA"/>
<path fill-rule="evenodd" clip-rule="evenodd" d="M65.1204 23.9139C59.8539 27.8103 56.2078 33.2653 55.8027 39.1099C63.0948 41.4478 67.9563 48.0717 67.5511 55.8645V58.2024C55.8027 55.0852 43.244 55.0852 31.4956 58.2024V55.8645C31.4956 46.9028 38.7877 39.4996 47.7003 38.3307C48.1054 30.1482 52.9669 22.745 60.259 17.6797C61.8795 16.5107 64.7153 16.9004 65.9307 18.4589C67.146 20.0175 66.7409 22.745 65.1204 23.9139ZM8.40392 113.921C23.3933 102.622 31.9008 85.0877 31.9008 66.3849C43.6493 62.8781 55.3977 62.8781 67.1461 65.9952C63.0949 90.5426 46.08 111.194 22.178 119.766L5.56809 125.61C5.16297 126 4.75785 126 4.35273 126C2.73226 126 1.5169 125.221 0.706662 124.052C-0.508694 122.104 -0.103576 120.155 1.5169 118.986L8.40392 113.921ZM107.5 34V118H91.25V34H107.5ZM132.196 56.5V118H115.946V56.5H132.196ZM132.196 34V49.125H115.946V34H132.196ZM199.119 56.5L176.994 118H159.994L137.994 56.5H156.119L168.994 97.125L181.994 56.5H199.119ZM228.344 67.75C221.844 67.75 216.469 72.75 215.844 81.25H240.969C240.719 72.125 234.719 67.75 228.344 67.75ZM228.844 54.875C247.719 54.875 257.719 67.125 257.719 91.5H215.344C215.844 100.75 221.094 106.75 229.094 106.75C234.344 106.75 238.969 104.125 240.094 99.875H256.844C253.094 112.5 242.969 119.625 229.844 119.625C209.344 119.625 199.094 108.375 199.094 86.125C199.094 67.125 209.969 54.875 228.844 54.875Z" fill="url(#paint0_linear_144_3022)"/>
<path d="M502 109.5C502 114.194 498.194 118 493.5 118C488.806 118 485 114.194 485 109.5C485 104.806 488.806 101 493.5 101C498.194 101 502 104.806 502 109.5Z" fill="url(#paint1_linear_144_3022)"/>
<defs>
<linearGradient id="paint0_linear_144_3022" x1="119" y1="119.5" x2="102" y2="25.5" gradientUnits="userSpaceOnUse">
<stop stop-color="#F81D69"/>
<stop offset="1" stop-color="#E84947"/>
</linearGradient>
<linearGradient id="paint1_linear_144_3022" x1="485" y1="107.896" x2="502" y2="109.66" gradientUnits="userSpaceOnUse">
<stop stop-color="#E64E42"/>
<stop offset="1" stop-color="#F81B6A"/>
</linearGradient>
</defs>
</svg>
